<?xml version="1.0" encoding="UTF-8" standalone="no"?>
<svg
   width="32"
   height="32"
   viewBox="0 0 32 32"
   version="1.1"
   id="svg17"
   xml:space="preserve"
   xmlns="http://www.w3.org/2000/svg"
   xmlns:svg="http://www.w3.org/2000/svg"><defs
     id="defs17" /><path
     id="path1"
     d="M 5.6280948,0.25637827 A 1.7286509,1.7286509 0 0 0 3.899444,1.985029 V 8.899632 H 5.6280948 V 1.985029 H 12.542698 V 0.25637827 Z m 13.8292082,0 V 1.985029 h 6.914602 v 6.914603 h 1.728651 V 1.985029 A 1.7286509,1.7286509 0 0 0 26.371905,0.25637827 Z M 16,7.1709816 A 5.1859527,5.1859527 0 0 0 16,17.542887 5.1920028,5.1920028 0 0 0 21.185953,12.356934 5.1859525,5.1859525 0 0 0 17.154685,7.3009684 5.1859525,5.1859525 0 0 0 16,7.1709816 Z M 16,8.899632 A 3.4616233,3.4616233 0 0 1 19.457303,12.356934 3.4573017,3.4573017 0 1 1 16,8.899632 Z"
     style="stroke-width:0.864326" /><path
     fill="currentColor"
     d="m 18.143709,15.665806 h -4.287418 c -1.17904,0 -2.143709,0.964669 -2.143709,2.143708 v 5.359273 c 0,0.589519 0.482335,1.071854 1.071855,1.071854 h 1.071854 v 6.431126 c 0,0.58952 0.482335,1.071855 1.071855,1.071855 h 2.143708 c 0.58952,0 1.071855,-0.482335 1.071855,-1.071855 v -6.431126 h 1.071854 c 0.58952,0 1.071855,-0.482335 1.071855,-1.071854 v -5.359273 c 0,-1.179039 -0.964669,-2.143708 -2.143709,-2.143708"
     id="path1-5"
     style="stroke-width:1.07185" /><circle
     cx="16"
     cy="12.450242"
     r="2.1437087"
     fill="currentColor"
     id="circle1"
     style="stroke-width:1.07185" /><g
     id="g30"
     transform="matrix(1.0718544,0,0,1.0718544,2.9559056,8.1628249)"><circle
       cx="16.184971"
       cy="4.4406042"
       r="0.87920254"
       fill="currentColor"
       id="circle2"
       style="stroke-width:0.879203"
       transform="matrix(0.91717573,0,0,0.91717573,-2.6748117,-7.4173165)" /><circle
       cx="16.184971"
       cy="0.92379385"
       r="0.87920254"
       fill="currentColor"
       id="circle3"
       style="stroke-width:0.879203"
       transform="matrix(0.91717573,0,0,0.91717573,-2.6748117,-7.4173165)" /><circle
       cx="24.097794"
       cy="12.353427"
       r="0.87920254"
       fill="currentColor"
       id="circle6"
       style="stroke-width:0.879203"
       transform="matrix(0.91717573,0,0,0.91717573,-2.6748117,-7.4173165)" /><circle
       cx="27.614605"
       cy="12.353427"
       r="0.87920254"
       fill="currentColor"
       id="circle7"
       style="stroke-width:0.879203"
       transform="matrix(0.91717573,0,0,0.91717573,-2.6748117,-7.4173165)" /><circle
       cx="8.2721481"
       cy="12.353427"
       r="0.87920254"
       fill="currentColor"
       id="circle8"
       style="stroke-width:0.879203"
       transform="matrix(0.91717573,0,0,0.91717573,-2.6748117,-7.4173165)" /><circle
       cx="4.7553382"
       cy="12.353427"
       r="0.87920254"
       fill="currentColor"
       id="circle9"
       style="stroke-width:0.879203"
       transform="matrix(0.91717573,0,0,0.91717573,-2.6748117,-7.4173165)" /><circle
       cx="10.589725"
       cy="6.758182"
       r="0.87920254"
       fill="currentColor"
       id="circle10"
       style="stroke-width:0.879203"
       transform="matrix(0.91717573,0,0,0.91717573,-2.6748117,-7.4173165)" /><circle
       cx="8.2721481"
       cy="4.4406042"
       r="0.87920254"
       fill="currentColor"
       id="circle11"
       style="stroke-width:0.879203"
       transform="matrix(0.91717573,0,0,0.91717573,-2.6748117,-7.4173165)" /><circle
       cx="21.780216"
       cy="6.758182"
       r="0.87920254"
       fill="currentColor"
       id="circle14"
       style="stroke-width:0.879203"
       transform="matrix(0.91717573,0,0,0.91717573,-2.6748117,-7.4173165)" /><circle
       cx="24.097794"
       cy="4.4406042"
       r="0.87920254"
       fill="currentColor"
       id="circle15"
       style="stroke-width:0.879203"
       transform="matrix(0.91717573,0,0,0.91717573,-2.6748117,-7.4173165)" /></g></svg>
