<?xml version="1.0" encoding="UTF-8" standalone="no"?>
<!-- Created with Inkscape (http://www.inkscape.org/) -->

<svg
   width="31.999998"
   height="31.999998"
   viewBox="0 0 8.466666 8.4666661"
   version="1.1"
   id="svg1"
   xml:space="preserve"
   xmlns="http://www.w3.org/2000/svg"
   xmlns:svg="http://www.w3.org/2000/svg"><defs
     id="defs1" /><path
     fill="currentColor"
     fill-rule="evenodd"
     d="m 1.0763489,5.4587459 c -0.10205831,0 -0.20670034,0.032943 -0.28916518,0.100982 -0.0837567,0.0689 -0.14167585,0.1722498 -0.14167585,0.2915335 V 6.1834889 H 0.32296925 C 0.1485659,6.1834889 0,6.3199975 0,6.4978454 v 1.6544641 c 0,0.1776331 0.1485659,0.314357 0.32296925,0.314357 H 2.6914105 c 0.1744034,0 0.3229692,-0.1367239 0.3229692,-0.314357 V 6.4978454 c 0,-0.1776328 -0.1485658,-0.3143565 -0.3229692,-0.3143565 H 2.3688718 V 5.8512614 c 0,-0.1190681 -0.057919,-0.2226337 -0.1416758,-0.2915335 A 0.45646324,0.45646324 0 0 0 1.9380309,5.4587459 H 1.0765642 Z m 0.8618973,0.724743 V 5.8893717 H 1.0761336 V 6.1834889 Z M 0.94199366,7.3250776 c 0,-0.074283 0.0602875,-0.1345705 0.13457054,-0.1345705 h 0.2960552 v -0.296055 a 0.13457053,0.13457053 0 1 1 0.269141,0 v 0.296055 h 0.2960552 a 0.13457053,0.13457053 0 1 1 0,0.2691407 H 1.6417604 v 0.2960558 a 0.13457053,0.13457053 0 1 1 -0.269141,0 V 7.4596478 H 1.0765642 A 0.13457053,0.13457053 0 0 1 0.94199366,7.3250776"
     clip-rule="evenodd"
     id="path1-2"
     style="stroke-width:0.215313" /><g
     id="layer1"><g
       id="g2"
       transform="matrix(0.26458333,0,0,0.26458333,1.0583334,2.403825)"><path
         d="m 8.9316405,-0.10094784 c -1.6878408,0 -3.0683594,1.38051864 -3.0683594,3.06835944 v 7.6718754 c 0,0.84392 0.6892827,1.535156 1.5332031,1.535156 h 1.5351563 v 9.205078 c 0,0.843921 0.6892823,1.535156 1.5332035,1.535156 h 3.070312 c 0.843921,0 1.533203,-0.691235 1.533203,-1.535156 v -9.205078 h 1.535157 c 0.84392,0 1.533203,-0.691236 1.533203,-1.535156 V 2.9674116 c 0,-1.6878408 -1.380519,-3.06835944 -3.06836,-3.06835944 z m 1.2558595,0.0703125 h 0.429687 a 0.42968751,0.42968751 0 0 1 0,0.85937502 H 10.1875 V 2.9752241 a 1.7177982,1.7177982 0 1 0 3.435547,0 V 0.82873968 h -0.429688 a 0.42968751,0.42968751 0 0 1 0,-0.85937502 h 0.429688 a 0.85889907,0.85889907 0 0 1 0.859375,0.85937502 V 2.9752241 a 2.5766973,2.5766973 0 0 1 -2.148438,2.5410156 v 0.2519532 a 1.9326175,1.9326175 0 1 0 3.865235,0 v -0.71875 A 1.2887781,1.2887781 0 0 1 16.253906,4.4205366 1.024569,1.024569 0 0 1 15.537109,3.457646 1.024569,1.024569 0 0 1 16.5625,2.4322553 a 1.024569,1.024569 0 0 1 1.023437,1.0253907 1.024569,1.024569 0 0 1 -0.580078,0.9121093 1.2887781,1.2887781 0 0 1 0.05273,0.6796876 v 0.71875 a 2.7919925,2.7919925 0 0 1 -5.583985,0 V 5.5162397 A 2.5766973,2.5766973 0 0 1 9.3281249,2.9752241 V 0.82873968 A 0.85889907,0.85889907 0 0 1 10.1875,-0.03063534 Z"
         style="fill:currentColor"
         id="path51" /><path
         d="m 15.068359,-4.6907916 c -0.245266,0.00609 -0.490864,0.00882 -0.736328,0.00391 H 11.041016 8.9335936 A 3.0688014,3.0688014 0 0 0 12,-1.634151 3.0688014,3.0688014 0 0 0 15.068359,-4.6907916 Z"
         id="path44" /><path
         id="path1-7"
         style="stroke-width:0.606567"
         d="m 12.341681,-8.8372761 a 16.134674,16.134674 0 0 0 -0.910156,0.00586 16.134674,16.134674 0 0 0 -3.3691412,0.4785156 0.29721768,0.29721768 0 0 0 -0.2089843,0.3828125 l 1.0703125,3.2773432 a 0.6065667,0.6065667 0 0 0 0.5761719,0.4179688 h 5.0000001 a 0.6065667,0.6065667 0 0 0 0.576172,-0.4179688 l 1.070312,-3.2773438 a 0.29903739,0.29903739 0 0 0 -0.207031,-0.3847656 v 0.00195 a 16.134674,16.134674 0 0 0 -3.597656,-0.484375 z m -0.425781,1 a 0.3791045,0.3791045 0 0 1 0.46289,0.3691407 v 0.53125 h 0.53125 a 0.3791042,0.3791042 0 1 1 0,0.7578125 h -0.53125 v 0.53125 a 0.3791045,0.3791045 0 0 1 -0.757812,0 v -0.53125 h -0.53125 a 0.3791042,0.3791042 0 0 1 0,-0.7578125 h 0.53125 v -0.53125 A 0.3791045,0.3791045 0 0 1 11.9159,-7.8372761 Z" /></g><path
       fill="currentColor"
       d="M 7.5497917,6.2609824 H 6.9996667 V 6.0776074 H 6.8162917 V 5.8942324 H 6.6329166 V 4.9773574 H 6.8162917 V 4.4272323 h 0.183375 v -0.183375 h 0.7335 v 0.183375 h 0.183375 v 0.5501251 h -0.183375 v 0.183375 h -0.183375 v 0.183375 h -0.36675 v -0.183375 h 0.183375 v -0.183375 h 0.183375 V 4.6106073 h -0.36675 v 0.3667501 h -0.183375 v 0.7335 h 0.183375 v 0.183375 h 0.183375 v -0.183375 h 0.36675 v -0.183375 h 0.183375 v -0.36675 h 0.183375 V 4.0604823 h -0.183375 v -0.183375 h -0.183375 v -0.183375 h -0.550125 v 0.183375 h -0.183375 v 0.183375 h -0.183375 v 0.183375 H 6.6329166 v 0.183375 h -0.183375 v 0.183375 h -0.183375 v 0.3667501 h -0.183375 v 0.183375 h -0.183375 v 0.183375 h -0.183375 v 0.183375 h -0.183375 v -0.183375 h -0.183375 v -0.36675 h 0.183375 v -0.183375 h 0.183375 V 4.6106073 h 0.183375 v -0.183375 h 0.183375 v -0.183375 h 0.183375 v -0.183375 h 0.183375 v -0.183375 h 0.183375 v -0.183375 h 0.1833751 v -0.183375 h 0.36675 v -0.183375 h 0.7335 v 0.183375 h 0.183375 v 0.183375 h 0.183375 v 0.183375 h 0.183375 v 1.4670001 h -0.183375 v 0.36675 h -0.183375 v 0.183375 h -0.183375 v 0.183375 h -0.36675 z"
       id="path1"
       style="stroke-width:0.183375" /></g></svg>
