<?xml version="1.0" encoding="UTF-8" standalone="no"?>
<!-- Created with Inkscape (http://www.inkscape.org/) -->

<svg
   width="31.999998"
   height="31.999998"
   viewBox="0 0 8.466666 8.4666661"
   version="1.1"
   id="svg1"
   xml:space="preserve"
   xmlns="http://www.w3.org/2000/svg"
   xmlns:svg="http://www.w3.org/2000/svg"><defs
     id="defs1" /><g
     id="layer1"><g
       id="g2"
       transform="matrix(0.26458333,0,0,0.26458333,1.0583334,2.403825)"><g
         id="g3"
         transform="matrix(1.5344007,0,0,1.5344007,-6.4128085,-10.842137)"><path
           fill="currentColor"
           d="M 14,7 H 10 C 8.9,7 8,7.9 8,9 v 5 c 0,0.55 0.45,1 1,1 h 1 v 6 c 0,0.55 0.45,1 1,1 h 2 c 0.55,0 1,-0.45 1,-1 v -6 h 1 c 0.55,0 1,-0.45 1,-1 V 9 C 16,7.9 15.1,7 14,7"
           id="path1" /><path
           id="circle1"
           d="m 13.999439,4.0084573 c -0.159845,0.00397 -0.319602,0.0061 -0.479576,0.0029 H 11.375538 10.00201 A 2,2 0 0 0 12,6.0006518 2,2 0 0 0 13.999439,4.0084573 Z" /></g><path
         fill="currentColor"
         d="m 11.040732,-6.3131358 -0.391813,-2.5625495 a 4.458566,4.458566 0 0 1 2.702161,0 l -0.391813,2.5625495 c -0.03153,0.2206765 -0.22518,0.3828062 -0.450361,0.3828062 h -1.022317 a 0.4503602,0.4503602 0 0 1 -0.445857,-0.3828062 m 5.46287,1.7338869 c 0,-0.3557846 -0.211669,-0.6755404 -0.540432,-0.8241593 A 4.0892706,4.0892706 0 0 0 14.2518,-7.9569505 l -0.792634,2.1797434 c -0.06305,0.180144 -0.234187,0.2972377 -0.423338,0.2972377 h -2.071657 c -0.189151,0 -0.360288,-0.1170937 -0.423339,-0.2972377 L 9.7481988,-7.9569505 a 4.0982778,4.0982778 0 0 0 -1.711369,2.5490387 c -0.328763,0.1531225 -0.540432,0.4683747 -0.540432,0.8286629 l 2.9048232,0.8286627 c 0.162129,0.045036 0.328763,0.072058 0.495396,0.072058 h 2.197758 c 0.166633,0 0.333266,-0.027022 0.495396,-0.072058 z"
         id="path1-3"
         style="stroke-width:0.45036" /><path
         fill="currentColor"
         d="M 7.6500379,10.484311 0.72042026,3.5560647 1.0362392,3.2400492 a 0.44054137,0.44054137 0 0 0 0.11689,-0.4103883 C 2.9953755,1.337694 4.9075209,0.48832986 6.3307633,0.48284793 4.8662079,-0.37963415 2.4455799,0.16448372 0.22720926,1.8076044 l -0.12668,-0.1266803 a 0.44191195,0.44191195 0 0 0 -0.624198,0 l -0.315819,0.3156235 -0.68313306,-0.6827407 c -0.06853,-0.068135 -0.154875,-0.097702 -0.250424,-0.097702 -0.540592,0 -1.378992,0.95059 -0.991511,1.3343513 l 0.685482,0.685286 -0.316798,0.3167987 a 0.44249933,0.44249933 0 0 0 0,0.6238062 l 0.127071,0.1268757 c -1.643513,2.2173913 -2.187826,4.6374319 -1.325148,6.1012042 0.0061,-1.4226545 0.855433,-3.3344087 2.3474,-5.1758718 a 0.44054137,0.44054137 0 0 0 0.41019306,-0.1166946 l 0.316994,-0.3166019 6.93196774,6.9303993 c 0.068137,0.06892 0.1542875,0.09887 0.2498359,0.09887 0.5370689,0 1.3715521,-0.953332 0.987596,-1.340224"
         id="path1-9"
         style="stroke-width:0.195795" /></g></g></svg>
