<?xml version="1.0" encoding="UTF-8" standalone="no"?>
<!-- Created with Inkscape (http://www.inkscape.org/) -->

<svg
   width="31.999998"
   height="31.999998"
   viewBox="0 0 8.466666 8.4666661"
   version="1.1"
   id="svg1"
   xml:space="preserve"
   xmlns="http://www.w3.org/2000/svg"
   xmlns:svg="http://www.w3.org/2000/svg"><defs
     id="defs1" /><path
     fill="currentColor"
     d="M 7.7881738,4.9228844 C 7.3595519,4.7219593 6.7863266,4.6067349 6.2154607,4.6067349 H 2.4901958 C 2.4256173,4.5212554 2.3521645,4.4505379 2.2721619,4.39809 H 4.9635908 C 3.0487127,4.0035811 2.9215171,2.6246076 1.3123433,2.6246076 h -3.94e-5 V 4.2937672 H 1.103659 V 2.6246076 c -0.3456986,0 -0.62593526,0.3736571 -0.62593526,0.8345802 v 0.8345794 c -0.30249577,0 -0.41728974,0.1308206 -0.41728974,0.3129677 v 0.5216125 c 0,0.1823423 0.11500253,0.3129669 0.41728974,0.3129669 v 0.2086456 c -0.30249577,0 -0.41728974,0.1308199 -0.41728974,0.312967 v 0.5216125 c 0,0.1823429 0.11500253,0.3129676 0.41728974,0.3129676 v 0.8345802 c 0,0.4609223 0.28023666,0.8345795 0.62593526,0.8345795 V 6.797507 h 0.2086449 v 1.6691597 h 3.94e-5 c 1.6091738,0 1.7363694,-1.3789736 3.6512475,-1.7734825 H 2.2721492 c 0.080002,-0.05245 0.1534583,-0.1231654 0.218034,-0.2086448 h 3.7252775 c 0.5708659,0 1.1440912,-0.1152238 1.5727131,-0.3161489 0.3870109,-0.1814041 0.6180589,-0.4142125 0.6180589,-0.6227534 0,-0.208541 -0.231048,-0.4413494 -0.6180589,-0.6227527 M 6.4241056,6.0672496 A 0.10432249,0.10432249 0 0 1 6.3197828,5.9629269 V 5.1283474 A 0.10432249,0.10432249 0 0 1 6.4241056,5.0240246 c 0.4161036,0 0.4165334,1.043225 0,1.043225"
     id="path1"
     style="stroke-width:0.0130403" /><path
     fill="currentColor"
     d="m 6.1605636,3.1273021 c 0,-0.1269169 0.040505,-0.2403319 0.120166,-0.3402452 C 6.3603902,2.6871436 6.4616536,2.6236852 6.5845199,2.5966816 6.6182744,2.4454615 6.6952346,2.3198949 6.8167507,2.222682 6.9382669,2.1254691 7.0759852,2.0768626 7.232606,2.0768626 c 0.15122,0 0.2875882,0.047256 0.4077541,0.1417688 0.120166,0.094513 0.1971262,0.2160287 0.233581,0.3631982 h 0.036455 c 0.1512202,0 0.2808373,0.052657 0.3888516,0.1593212 0.1066642,0.105314 0.1606714,0.2349312 0.1606714,0.3848011 0,0.081011 -0.016202,0.157971 -0.049957,0.2295304 -0.033755,0.07156 -0.079661,0.1336678 -0.1390687,0.1849746 v 0.00405 c 0,0.079661 -0.025653,0.1512201 -0.07561,0.2146785 -0.049957,0.063457 -0.113415,0.1026124 -0.1890251,0.1201647 -0.018903,0.083711 -0.060758,0.1552706 -0.1228663,0.2133283 -0.062108,0.058058 -0.1363681,0.094513 -0.2200793,0.1080144 0.039155,0.045906 0.058058,0.097213 0.058058,0.1525703 0,0.064809 -0.022953,0.1201659 -0.068859,0.1674222 -0.045906,0.045906 -0.1012634,0.070209 -0.166072,0.070209 -0.064809,0 -0.120166,-0.022953 -0.1660721,-0.070209 -0.045906,-0.045906 -0.068859,-0.1026136 -0.068859,-0.1674222 0,-0.025653 0.00405,-0.051307 0.013502,-0.07696 h -0.013502 q -0.1174656,0 -0.2025269,-0.085061 -0.085061,-0.085061 -0.085061,-0.2025269 c 0,-0.054007 0.013502,-0.1026137 0.040505,-0.1444692 C 6.9342163,3.8050921 6.8842597,3.7497347 6.8532056,3.6754748 H 6.6803827 v -0.00135 C 6.5359135,3.6646734 6.4130472,3.6079659 6.3117837,3.5026519 6.2105203,3.3973379 6.1605636,3.2731214 6.1605636,3.1273021 m 0.1890251,-0.033755 q 0,0.1620215 0.1134151,0.2754366 c 0.113415,0.113415 0.1674222,0.113415 0.2740864,0.113415 0.066159,0 0.128267,-0.014852 0.1849745,-0.045906 0.016202,0.099913 0.063458,0.1836244 0.1404187,0.2511334 0.07696,0.067509 0.1687724,0.099913 0.2727362,0.099913 0.1174656,0 0.2173789,-0.041856 0.2997398,-0.1242165 0.055357,0.064809 0.1242165,0.095863 0.2079276,0.095863 0.07696,0 0.1417688,-0.027004 0.1971262,-0.081011 0.054007,-0.054007 0.081011,-0.120166 0.081011,-0.1971262 0.054007,-0.036455 0.097213,-0.082361 0.1282671,-0.1404186 0.031054,-0.056707 0.047256,-0.1188158 0.047256,-0.1849746 0,-0.1066641 -0.037805,-0.1984763 -0.1147653,-0.2727362 -0.07696,-0.07426 -0.1687723,-0.112065 -0.2767866,-0.112065 -0.07561,0 -0.1444692,0.020253 -0.2065775,0.059408 0.0081,-0.032404 0.010802,-0.068859 0.010802,-0.1066642 0,-0.1296172 -0.045906,-0.2403319 -0.1390685,-0.3321441 -0.093163,-0.091812 -0.2052273,-0.136368 -0.3361948,-0.136368 -0.1269168,0 -0.2362813,0.044556 -0.3280935,0.1309673 -0.091812,0.086412 -0.1404186,0.1944259 -0.1444692,0.3199925 h -0.022953 c -0.1066642,0 -0.1971262,0.037805 -0.2740865,0.1134151 -0.07696,0.07561 -0.1147653,0.1687724 -0.1147653,0.2740864"
     id="path1-2"
     style="fill:#000000;fill-opacity:1;stroke:none;stroke-width:0.135;stroke-dasharray:none;stroke-opacity:1" /><path
     style="fill:#000000;fill-opacity:1;fill-rule:evenodd;stroke:none;stroke-width:0.0053989;stroke-dasharray:none;stroke-opacity:1"
     d="M 7.2261946,3.7689845 C 7.1536504,3.7483999 7.0877635,3.7055983 7.0280553,3.6402679 6.9785684,3.5861214 6.9306693,3.4915223 6.9306693,3.4479338 c 0,-0.010591 -0.00589,-0.014346 -0.016264,-0.010366 C 6.7982762,3.4821308 6.6544416,3.4873588 6.5773634,3.4498208 6.5186754,3.4212378 6.4304535,3.3312761 6.394947,3.2638063 6.3671,3.2108913 6.364576,3.1968663 6.364576,3.0949942 c 0,-0.1064763 0.00151,-0.1138891 0.036292,-0.178039 C 6.462784,2.8027561 6.5758949,2.727058 6.7027873,2.7148983 l 0.063833,-0.00612 0.00755,-0.060639 C 6.7852609,2.5590777 6.8292228,2.4753066 6.9034577,2.4017782 7.0518882,2.2547605 7.2587929,2.22009 7.4438996,2.3112179 c 0.1684914,0.082948 0.2669886,0.2520306 0.2574025,0.4418635 -0.00335,0.066426 -0.00159,0.076804 0.01216,0.07108 0.097482,-0.040615 0.1362302,-0.048629 0.2138002,-0.044221 0.3366122,0.019127 0.4845191,0.417839 0.2420522,0.6524988 -0.036518,0.035343 -0.052075,0.059542 -0.056509,0.087907 -0.01384,0.088537 -0.078369,0.1734458 -0.1599816,0.2105091 -0.088545,0.040212 -0.2370315,0.014309 -0.2955835,-0.051563 l -0.019402,-0.021828 -0.051598,0.039053 c -0.028379,0.021479 -0.074405,0.047675 -0.1022805,0.058213 -0.065755,0.024858 -0.1951734,0.032016 -0.2577632,0.014256 z"
     id="path57" /><path
     style="fill:#000000;fill-opacity:1;fill-rule:evenodd;stroke:none;stroke-width:0.0053989;stroke-dasharray:none;stroke-opacity:1"
     d="M 7.3843861,4.557373 C 7.3006809,4.5136448 7.2639763,4.4498696 7.2639763,4.3481579 v -0.076335 l -0.049692,-0.00588 C 7.0404627,4.2453562 6.925022,4.0512277 6.9900135,3.8887982 l 0.017021,-0.042536 -0.05458,-0.049073 C 6.9224347,3.7702 6.8887366,3.7302077 6.8775693,3.7083179 L 6.8572652,3.6685188 6.7220239,3.6640844 C 6.5667098,3.6589938 6.5070582,3.6410947 6.3980125,3.5668706 6.3214757,3.5147742 6.2342818,3.4051877 6.2003294,3.3184205 6.1709606,3.2433672 6.1605313,3.089721 6.1793267,3.0090202 6.2202448,2.8333372 6.3633579,2.6747747 6.5327683,2.6174236 c 0.05134,-0.01738 0.05248,-0.018741 0.080831,-0.096505 0.038487,-0.1055646 0.08788,-0.1798563 0.1713765,-0.257764 0.1328237,-0.1239337 0.268859,-0.1779929 0.4472575,-0.1777363 0.07053,1.015e-4 0.1269806,0.00646 0.1692989,0.019078 0.2077418,0.06193 0.3738118,0.2155805 0.4445915,0.4113428 l 0.02385,0.065966 0.073649,0.00671 c 0.1536454,0.014002 0.2643074,0.068289 0.3710485,0.1820262 0.1854345,0.1975882 0.1844767,0.5162873 -0.00217,0.7195759 -0.037319,0.040648 -0.046881,0.059554 -0.052006,0.1028298 C 8.2479308,3.699044 8.143595,3.8307245 8.0498415,3.8588137 8.0157626,3.869024 8.0041424,3.879229 7.9924676,3.909197 7.937746,4.0496677 7.8485073,4.138699 7.720541,4.1804923 c -0.029968,0.00979 -0.055789,0.018852 -0.05738,0.020143 -0.00159,0.0013 0.00906,0.023268 0.02368,0.048834 0.06128,0.1072018 0.016105,0.2481202 -0.098709,0.3079104 -0.074391,0.03874 -0.1295852,0.038738 -0.2037529,-8.2e-6 z M 7.4906067,3.7630266 c 0.031533,-0.012046 0.075794,-0.036738 0.098359,-0.054872 l 0.041028,-0.032971 0.038241,0.029168 c 0.052773,0.040252 0.1031529,0.056286 0.1777058,0.056559 0.1391886,5.028e-4 0.2582543,-0.1006803 0.2750611,-0.2337633 0.00637,-0.05046 -0.00101,-0.039764 -0.030782,0.044684 -0.0191,0.054154 -0.085155,0.1267346 -0.1382789,0.1519436 -0.074709,0.035452 -0.2301214,0.012195 -0.2810955,-0.042065 -0.013391,-0.014253 -0.027646,-0.025913 -0.031681,-0.025913 -0.00403,0 -0.038727,0.02105 -0.077094,0.046778 -0.081742,0.054814 -0.1552413,0.073604 -0.2652805,0.067819 C 7.205174,3.7655751 7.1427657,3.7374986 7.064322,3.6658057 7.0069934,3.6134106 6.9412505,3.5067671 6.9412505,3.4661678 c 0,-0.03211 -0.021392,-0.03647 -0.085509,-0.017428 -0.07867,0.023363 -0.2148107,0.021503 -0.2702962,-0.00369 C 6.5276941,3.4188206 6.4310058,3.3193426 6.3970619,3.2512259 6.3735298,3.2040038 6.369867,3.1829597 6.369867,3.094996 c 0,-0.088163 0.00364,-0.1089556 0.027402,-0.1566455 0.057818,-0.116025 0.1638525,-0.1924309 0.2992813,-0.2156544 l 0.073598,-0.012621 0.00724,-0.048247 c 0.025582,-0.1706202 0.1571188,-0.3214696 0.32469,-0.3723679 0.2161701,-0.06566 0.4513292,0.037883 0.5496576,0.2420183 0.030211,0.06272 0.034957,0.084477 0.038675,0.1773047 0.00233,0.058196 0.00755,0.109364 0.011594,0.1137055 0.00405,0.00434 0.035705,-0.00212 0.070356,-0.014327 0.050526,-0.01782 0.080808,-0.02137 0.1529403,-0.017931 0.077069,0.00368 0.099432,0.00936 0.1562663,0.039711 0.078241,0.041787 0.132832,0.098689 0.1676554,0.1747531 0.065921,0.1439897 0.035495,0.2931954 -0.087563,0.4294058 -0.020778,0.023 -0.033115,0.041817 -0.027415,0.041817 0.018852,0 0.103759,-0.099649 0.1283983,-0.1506922 C 8.3255587,3.1948905 8.3049366,3.0194059 8.2139146,2.9105619 8.0981816,2.7721684 7.9092114,2.7303166 7.7321949,2.8038737 c -0.016589,0.00689 -0.018518,9.66e-5 -0.018518,-0.065282 0,-0.1462988 -0.04971,-0.2650007 -0.1497722,-0.3576409 C 7.4512928,2.2766918 7.3116378,2.2332716 7.1629436,2.2562873 6.9608268,2.2875721 6.7836123,2.45931 6.7647377,2.6421867 l -0.00605,0.058624 -0.067493,0.00542 c -0.092622,0.00743 -0.1684255,0.046638 -0.2403049,0.1242759 -0.081623,0.088163 -0.1055391,0.1552866 -0.099893,0.2803636 0.00303,0.06707 0.010972,0.1100955 0.026865,0.1454991 0.027597,0.061476 0.1178119,0.1588368 0.1823186,0.1967611 0.044023,0.025882 0.056879,0.02805 0.1641565,0.027683 0.084068,-2.911e-4 0.1272291,-0.0052 0.1554109,-0.017701 l 0.039018,-0.017304 0.00725,0.033573 c 0.028344,0.1311468 0.1533644,0.2591908 0.2906884,0.2977176 0.075432,0.021164 0.198175,0.014859 0.2738975,-0.014068 z"
     id="path58" /><path
     style="fill:#000000;fill-opacity:1;fill-rule:evenodd;stroke:none;stroke-width:0.0053989;stroke-dasharray:none;stroke-opacity:1"
     d="M 7.3843861,4.557373 C 7.3003105,4.5134514 7.2639763,4.4499696 7.2639763,4.3469975 V 4.2695018 L 7.2269421,4.2692706 C 7.1786373,4.2689795 7.1038055,4.2346255 7.0589928,4.1921916 6.9807846,4.1181353 6.9508795,3.986604 6.9900135,3.8887987 l 0.017021,-0.042536 -0.05458,-0.049073 c -0.030019,-0.02699 -0.063963,-0.067464 -0.075431,-0.089943 L 6.8561711,3.666377 6.7426387,3.6662513 C 6.6801957,3.6661822 6.6046717,3.6596208 6.5748076,3.6516675 6.3943742,3.6036236 6.2297521,3.4423813 6.1851447,3.270005 6.1651316,3.1926646 6.1642479,3.0654312 6.1832397,2.9944721 6.2287766,2.8242556 6.3617649,2.6788205 6.5269522,2.61859 6.5870782,2.596667 6.5872982,2.596427 6.6118332,2.525721 6.6482312,2.4208308 6.6996522,2.3434782 6.7875459,2.261395 6.8721529,2.182381 6.9778078,2.1234905 7.0788156,2.0990447 7.1620266,2.0789057 7.324231,2.0817037 7.4015414,2.1046147 7.6088575,2.1660437 7.7753339,2.3200276 7.846133,2.515843 l 0.02385,0.065966 0.073649,0.00671 c 0.1037151,0.00945 0.178992,0.033728 0.2519916,0.081266 0.2872205,0.1870409 0.3429365,0.5494206 0.1247592,0.8114438 -0.041772,0.050167 -0.05436,0.074299 -0.059921,0.1148723 -0.014449,0.1054113 -0.1182069,0.235032 -0.2102009,0.2625942 -0.029428,0.00882 -0.045414,0.02095 -0.052446,0.039802 -0.054859,0.1470856 -0.1443776,0.2374779 -0.2800038,0.2827383 -0.028458,0.0095 -0.053043,0.018275 -0.054634,0.019508 -0.00159,0.00124 0.00906,0.023162 0.02368,0.048728 0.06128,0.1072017 0.016105,0.2481201 -0.098709,0.3079104 -0.074391,0.03874 -0.1295852,0.038738 -0.203753,-8.2e-6 z M 7.4906067,3.7629383 c 0.031533,-0.011996 0.075794,-0.03665 0.098359,-0.054784 l 0.041028,-0.032971 0.036796,0.028066 c 0.1205826,0.091972 0.2993163,0.071864 0.3952029,-0.044463 0.033859,-0.041077 0.069648,-0.1310942 0.061156,-0.15382 -0.00354,-0.00946 -0.00643,-0.0087 -0.010282,0.00269 -0.0305,0.090377 -0.046663,0.1211342 -0.082478,0.1569493 -0.056727,0.056727 -0.1012733,0.075837 -0.1767822,0.075837 -0.075767,0 -0.145099,-0.022598 -0.1841656,-0.060026 l -0.028662,-0.02746 -0.058678,0.038949 C 7.4834609,3.7573831 7.4554256,3.7657532 7.3327532,3.7663546 7.2019426,3.7669896 7.1563557,3.7499186 7.0643212,3.6658057 7.012538,3.6184787 6.9414667,3.508112 6.9410875,3.4744358 6.9406642,3.4363149 6.9255935,3.4315857 6.8593056,3.4487633 6.7699455,3.4719196 6.6407622,3.4701654 6.5854444,3.4450459 6.5276933,3.4188204 6.431005,3.3193423 6.3970611,3.2512256 6.3735291,3.2040036 6.3698662,3.1829594 6.3698662,3.0949958 c 0,-0.089273 0.00349,-0.108652 0.028616,-0.1590815 0.05748,-0.115347 0.1807361,-0.2015496 0.3095636,-0.2165017 l 0.061776,-0.00717 0.0074,-0.049331 c 0.017986,-0.119937 0.085418,-0.229023 0.1884649,-0.3048818 0.2296652,-0.1690699 0.5614712,-0.085182 0.6860487,0.1734484 0.030211,0.06272 0.034957,0.084477 0.038675,0.1773047 0.00233,0.058196 0.00755,0.1093639 0.011594,0.1137055 0.00405,0.00434 0.035705,-0.00212 0.070356,-0.014327 0.083951,-0.029609 0.2187141,-0.024569 0.2927847,0.010951 0.1642166,0.078746 0.2521612,0.2635978 0.204596,0.4300413 -0.019621,0.068661 -0.050023,0.1206831 -0.1080813,0.1849467 -0.048094,0.053234 -0.031052,0.055145 0.019074,0.00214 C 8.2648278,3.3473104 8.296819,3.2692714 8.296819,3.1530611 8.296819,3.0471971 8.2655,2.9686423 8.1929814,2.892614 8.0746584,2.7685649 7.8953701,2.7339534 7.7321958,2.80366 c -0.016611,0.0071 -0.018518,3.969e-4 -0.018518,-0.065067 0,-0.247415 -0.165808,-0.4439902 -0.4059955,-0.4813313 C 7.1550886,2.2335416 7.0231579,2.2763729 6.903214,2.3885745 6.8246164,2.4620988 6.7736097,2.5562217 6.7644925,2.6445584 l -0.00581,0.056257 -0.064791,0.00526 c -0.035635,0.00289 -0.087799,0.016108 -0.1159203,0.029368 -0.074366,0.035062 -0.159825,0.1178103 -0.1944143,0.1882466 -0.026668,0.054305 -0.029566,0.0711 -0.029566,0.17131 0,0.090404 0.00412,0.1199732 0.022093,0.1587177 0.028795,0.062061 0.1212268,0.1624595 0.1830036,0.1987765 0.045296,0.026628 0.057325,0.02869 0.165245,0.028321 0.08303,-2.911e-4 0.1273204,-0.00525 0.1545153,-0.017328 l 0.038122,-0.016928 0.01737,0.055102 C 6.9774248,3.6383417 7.103117,3.7535985 7.241157,3.783005 7.307187,3.79707 7.4260246,3.787515 7.4906033,3.762944 Z"
     id="path59" /><path
     style="fill:#000000;fill-opacity:1;fill-rule:evenodd;stroke:none;stroke-width:0.0053989;stroke-dasharray:none;stroke-opacity:1"
     d="M 7.3843861,4.557373 C 7.3002726,4.5134318 7.2639763,4.4500307 7.2639763,4.3470472 V 4.2695039 L 7.2269421,4.2692716 C 7.1786365,4.2689806 7.1038047,4.2346247 7.0589928,4.1921916 6.9807846,4.1181353 6.9508795,3.986604 6.9900135,3.8887987 l 0.017021,-0.042536 -0.05458,-0.049073 c -0.030019,-0.02699 -0.063963,-0.067464 -0.075431,-0.089943 L 6.8561711,3.666377 6.7426387,3.6662513 C 6.6801957,3.6661822 6.6046717,3.6596208 6.5748076,3.6516675 6.4418831,3.6162739 6.3028178,3.5092068 6.2343603,3.3895553 6.1836897,3.300993 6.1653358,3.2145081 6.1712308,3.0920875 c 0.0046,-0.095489 0.00843,-0.1104133 0.049919,-0.1941296 0.059665,-0.1204081 0.1380527,-0.1993871 0.2507411,-0.2526303 0.045731,-0.021607 0.09024,-0.042845 0.098909,-0.047197 0.00867,-0.00435 0.028735,-0.041907 0.044592,-0.083458 0.040524,-0.1061888 0.088169,-0.1758306 0.1757555,-0.2568988 0.081637,-0.075561 0.188862,-0.1347592 0.287659,-0.1588143 0.032008,-0.00779 0.1058116,-0.013771 0.164008,-0.013283 0.08519,7.143e-4 0.1218526,0.00636 0.1881167,0.028975 0.1975818,0.067429 0.3467417,0.2118596 0.4156604,0.4024809 l 0.023384,0.064674 0.072633,0.00672 c 0.1502093,0.013891 0.2341706,0.051321 0.3408416,0.1519494 0.1133737,0.1069509 0.1709102,0.2369857 0.1709102,0.3862641 0,0.1299552 -0.041689,0.2400798 -0.1350277,0.3566872 -0.040716,0.050867 -0.054133,0.077151 -0.059412,0.1163928 -0.013724,0.1020268 -0.1058704,0.2167226 -0.2083189,0.2592983 -0.039951,0.016603 -0.0525,0.027763 -0.057666,0.051282 -0.00936,0.042608 -0.078942,0.1465501 -0.1252517,0.1870974 -0.045326,0.039687 -0.099333,0.068853 -0.1623599,0.087681 l -0.044388,0.013261 0.025871,0.051054 c 0.058082,0.1146185 0.014817,0.2482731 -0.099666,0.3078908 -0.074391,0.03874 -0.1295852,0.038738 -0.2037529,-8.2e-6 z M 7.4182345,3.7826121 C 7.4839691,3.770145 7.5536593,3.7384942 7.5985602,3.700713 l 0.031561,-0.026557 0.044423,0.031491 c 0.056563,0.040098 0.1035613,0.05596 0.1658006,0.05596 0.1235895,0 0.2376244,-0.082384 0.2704814,-0.1954091 0.023434,-0.080607 0.013626,-0.085183 -0.014899,-0.00695 -0.025016,0.068607 -0.083762,0.135949 -0.1432041,0.164156 -0.07642,0.036264 -0.2238793,0.013928 -0.2831891,-0.042895 L 7.640965,3.6531379 7.576845,3.6959559 C 7.486987,3.7559607 7.4491513,3.7667107 7.327462,3.7668112 7.2025289,3.7669144 7.1549807,3.7486635 7.0643207,3.6658052 7.0125375,3.6184781 6.9414662,3.5081114 6.941087,3.4744353 6.9406637,3.4363144 6.925593,3.4315852 6.8593051,3.4487627 6.7683509,3.4723318 6.6408265,3.4701913 6.5834034,3.4441299 6.5238838,3.4171188 6.4330278,3.3233997 6.3977702,3.2526472 c -0.024331,-0.048824 -0.027905,-0.06902 -0.027905,-0.1576538 0,-0.089273 0.00349,-0.1086519 0.028616,-0.1590815 0.05748,-0.115347 0.1807361,-0.2015495 0.3095636,-0.2165017 l 0.061776,-0.00717 0.0074,-0.049331 c 0.025268,-0.1685035 0.1524249,-0.3171661 0.3185761,-0.3724576 0.056829,-0.018911 0.087175,-0.022445 0.1620157,-0.018867 0.078357,0.00375 0.1039326,0.010027 0.1715027,0.042116 0.099357,0.047184 0.1754484,0.1213248 0.2224002,0.2166976 0.030737,0.062435 0.035404,0.083322 0.039082,0.1749026 0.0023,0.057201 0.00867,0.1040011 0.014153,0.1040011 0.00548,0 0.00722,0.00446 0.00385,0.0099 -0.0036,0.00582 0.00814,0.00549 0.028474,-7.937e-4 0.019026,-0.00589 0.051204,-0.015642 0.071506,-0.021677 0.058798,-0.017476 0.1984266,-0.00525 0.2563582,0.022455 0.078591,0.03758 0.1410764,0.099519 0.1798471,0.1782742 0.031399,0.06378 0.0347,0.079403 0.033982,0.1608058 -9.525e-4,0.1069901 -0.019823,0.1567145 -0.094127,0.2479413 -0.060784,0.074626 -0.057079,0.090059 0.00478,0.019915 C 8.2647739,3.340912 8.2882826,3.2838175 8.2932899,3.1743602 8.2988699,3.0523635 8.2749807,2.9828593 8.1988328,2.8995401 8.0812851,2.7709243 7.8973131,2.7331254 7.7321914,2.8036636 c -0.016452,0.00703 -0.018518,8.731e-4 -0.018518,-0.055265 0,-0.1467994 -0.04427,-0.2598129 -0.1389452,-0.3547006 C 7.3906535,2.20921 7.0991851,2.2043719 6.9086004,2.3826415 c -0.085366,0.07985 -0.1472329,0.2015237 -0.1472329,0.2895641 0,0.027015 -0.00305,0.02863 -0.064606,0.034212 -0.1288751,0.011687 -0.2569651,0.1032592 -0.3181172,0.2274263 -0.021071,0.042787 -0.024651,0.06619 -0.024651,0.161158 0,0.096273 0.00345,0.1181642 0.025818,0.1640083 0.029085,0.059599 0.1352002,0.1716979 0.191149,0.2019279 0.048266,0.02608 0.2359866,0.027786 0.303217,0.00276 l 0.044032,-0.016394 0.013134,0.046914 c 0.017735,0.063347 0.082077,0.1605542 0.1325821,0.2003084 0.1080953,0.085085 0.2215002,0.1132821 0.3543054,0.088096 z"
     id="path60" /><path
     style="fill:#000000;fill-opacity:1;fill-rule:evenodd;stroke:none;stroke-width:0.0053989;stroke-dasharray:none;stroke-opacity:1"
     d="M 7.3874415,4.5593923 C 7.2975165,4.5145809 7.2543989,4.4371048 7.2600568,4.3305012 l 0.00295,-0.055584 -0.047972,-0.00686 C 7.0386799,4.2428286 6.9249731,4.0513486 6.9899349,3.8889929 l 0.016941,-0.04234 -0.058027,-0.053033 c -0.031914,-0.029167 -0.065723,-0.069251 -0.07513,-0.089074 L 6.8566172,3.6685026 6.7216993,3.6640338 C 6.628635,3.6609514 6.570369,3.6536992 6.5338755,3.6406526 6.4536348,3.6119699 6.3434996,3.5339649 6.2887671,3.4670505 6.1955306,3.3530622 6.162953,3.2474553 6.1713699,3.0864815 c 0.00466,-0.089225 0.00935,-0.1069226 0.049932,-0.1888318 0.059502,-0.1200793 0.1380095,-0.1991302 0.2505884,-0.2523219 0.045731,-0.021607 0.090289,-0.04287 0.099019,-0.04725 0.00873,-0.00438 0.028402,-0.041869 0.043717,-0.083307 0.03781,-0.1023053 0.081901,-0.1677973 0.1670296,-0.248103 0.1140148,-0.1075558 0.2127782,-0.1554579 0.3681707,-0.1785696 0.1432631,-0.021308 0.2901468,0.010887 0.4224258,0.092591 0.128746,0.079521 0.2292045,0.2041197 0.2791539,0.3462339 l 0.019291,0.054884 0.072271,0.00672 c 0.1499164,0.013933 0.2339123,0.051419 0.3404802,0.1519493 0.2139886,0.201866 0.2298274,0.5054526 0.038618,0.7402063 -0.033909,0.041631 -0.051227,0.074842 -0.059581,0.1142579 -0.024061,0.1135301 -0.09796,0.2105568 -0.1955186,0.2567096 -0.051536,0.024381 -0.060038,0.033437 -0.087148,0.092817 -0.053717,0.1176595 -0.153367,0.2054233 -0.2734961,0.2408738 l -0.044388,0.013099 0.026986,0.053254 c 0.022558,0.044515 0.026292,0.064175 0.022749,0.1198002 -0.00542,0.085048 -0.045205,0.1443717 -0.1249865,0.18635 -0.070965,0.03734 -0.1265552,0.037772 -0.1992408,0.00156 z M 7.4694345,3.768385 c 0.036977,-0.01274 0.1013177,-0.048193 0.1511808,-0.083305 0.014756,-0.01039 0.022466,-0.00866 0.042325,0.00951 0.049656,0.045429 0.094965,0.061087 0.17771,0.061413 0.083812,3.175e-4 0.144462,-0.021593 0.1994445,-0.07209 0.027988,-0.025704 0.068808,-0.1019588 0.080192,-0.1498018 0.01075,-0.045185 -0.00781,-0.020913 -0.029869,0.039063 -0.021312,0.057938 -0.088003,0.1309126 -0.1391865,0.1522984 -0.080548,0.033655 -0.2237298,0.01057 -0.2822636,-0.045509 l -0.029137,-0.027915 -0.0475,0.034112 c -0.081394,0.058453 -0.1390441,0.0782 -0.2435698,0.08343 -0.1232599,0.00617 -0.1877322,-0.01646 -0.27696,-0.097207 C 7.0121649,3.6184166 6.9412512,3.510158 6.9412512,3.4730849 c 0,-0.031892 -0.024069,-0.038384 -0.084343,-0.022749 -0.08566,0.02222 -0.217456,0.01923 -0.2735026,-0.0062 C 6.5238851,3.4171207 6.4330291,3.3234016 6.3977715,3.2526491 6.3734404,3.2038255 6.369867,3.1836293 6.369867,3.0949953 c 0,-0.1143747 0.019558,-0.168855 0.09028,-0.2514775 0.048585,-0.056761 0.1626338,-0.1142095 0.2459239,-0.1238763 l 0.062799,-0.00729 0.012975,-0.072601 c 0.024363,-0.1363251 0.1265431,-0.26365 0.2652178,-0.3304829 0.094468,-0.045528 0.2258819,-0.053037 0.3274454,-0.01871 0.1326467,0.044832 0.2313625,0.1339783 0.2878963,0.2599886 0.016997,0.037888 0.024781,0.07949 0.028066,0.1500419 0.00289,0.062125 0.00954,0.1017611 0.018275,0.109012 0.00994,0.00825 0.030506,0.00652 0.074496,-0.00627 0.083093,-0.024157 0.2135833,-0.01682 0.2819043,0.015851 0.078621,0.037594 0.1410766,0.099516 0.179847,0.1783083 0.031087,0.063176 0.034772,0.080244 0.034721,0.160806 -4.84e-5,0.076847 -0.00435,0.098893 -0.029209,0.1496066 -0.016034,0.032713 -0.048554,0.081519 -0.072265,0.1084572 -0.023712,0.026938 -0.038317,0.048979 -0.032457,0.048979 0.018719,0 0.088064,-0.087957 0.11679,-0.1481365 0.024254,-0.05081 0.02778,-0.071627 0.02778,-0.1640081 0,-0.094418 -0.00318,-0.112295 -0.029566,-0.1660197 C 8.1813013,2.825316 7.9755756,2.7324068 7.8058903,2.7817357 c -0.032827,0.00954 -0.067004,0.020159 -0.075949,0.023593 -0.013528,0.00519 -0.016264,-0.00454 -0.016264,-0.057857 0,-0.2516563 -0.1659797,-0.45041 -0.4087897,-0.4895084 -0.1976109,-0.03182 -0.4064428,0.077086 -0.4960411,0.2586879 -0.020553,0.041657 -0.040234,0.1001309 -0.043736,0.1299412 l -0.00637,0.054201 -0.061553,0.00558 c -0.1249077,0.011327 -0.2593864,0.106644 -0.3168976,0.2246149 -0.02241,0.045969 -0.02576,0.067472 -0.025538,0.164008 2.299e-4,0.100905 0.00299,0.1163918 0.030076,0.1687312 0.035394,0.068393 0.1320416,0.1677281 0.1913697,0.1966912 0.053608,0.02617 0.229336,0.027224 0.2977864,0.00177 l 0.043838,-0.01629 0.013499,0.048216 c 0.027185,0.097096 0.1180362,0.2026552 0.2215499,0.2574184 0.078079,0.041306 0.2231475,0.049024 0.3165608,0.016841 z"
     id="path61" /><path
     style="fill:#000000;fill-opacity:1;fill-rule:evenodd;stroke:none;stroke-width:0.0053989;stroke-dasharray:none;stroke-opacity:1"
     d="M 7.3858405,4.5583226 C 7.2983928,4.5123531 7.2670677,4.4612671 7.2608897,4.3545484 l -0.00492,-0.085044 -0.033029,-2.323e-4 C 7.1782349,4.2689541 7.1024154,4.2333097 7.058992,4.1921916 6.9816482,4.1189539 6.952132,3.9926937 6.9883546,3.8900282 l 0.015362,-0.043539 -0.055975,-0.052939 c -0.030786,-0.029116 -0.06497,-0.069641 -0.075964,-0.090056 L 6.851788,3.666377 6.7404466,3.6662513 C 6.6792088,3.6661822 6.6045188,3.6595785 6.5744684,3.6515775 6.3958583,3.6040218 6.2412686,3.4566793 6.1888221,3.2840107 6.1698885,3.2216785 6.1669993,3.1915846 6.1713279,3.1019048 c 0.00594,-0.1231156 0.021042,-0.1689787 0.090566,-0.275097 0.05669,-0.08653 0.1374381,-0.1529022 0.241839,-0.1987829 0.067238,-0.029549 0.077972,-0.038317 0.094049,-0.076822 0.062351,-0.149329 0.083422,-0.1823453 0.1730978,-0.2712343 0.069385,-0.068776 0.1106969,-0.099893 0.1738535,-0.1309503 0.1570633,-0.077235 0.3413387,-0.087564 0.5092631,-0.028543 0.1715087,0.060281 0.320992,0.2098287 0.3928745,0.3930453 l 0.028866,0.073575 h 0.0445 c 0.1349226,0 0.2601782,0.053144 0.3659661,0.1552733 0.1228005,0.118554 0.1761252,0.2545088 0.1652825,0.4214006 -0.00828,0.1274424 -0.035015,0.1877695 -0.160352,0.3618259 -0.013391,0.018595 -0.027503,0.053553 -0.031362,0.077685 -0.015539,0.097179 -0.097138,0.2025009 -0.193362,0.2495788 -0.052016,0.02545 -0.060588,0.034708 -0.087903,0.09495 -0.051954,0.114582 -0.1522968,0.2021483 -0.272184,0.2375273 l -0.044388,0.0131 0.026986,0.053254 C 7.7634224,4.3987132 7.6644404,4.5711411 7.497878,4.5844904 7.453587,4.5880404 7.433406,4.5833304 7.3858405,4.5583226 Z M 7.4876656,3.7601432 c 0.029967,-0.011213 0.073992,-0.034516 0.097832,-0.051785 0.049852,-0.036113 0.057031,-0.037508 0.075915,-0.014756 0.032338,0.038966 0.09793,0.061596 0.179238,0.061842 0.068186,2.058e-4 0.087359,-0.00415 0.1361824,-0.030917 0.073499,-0.040299 0.123687,-0.1069047 0.1434821,-0.190416 0.010702,-0.045152 -0.00783,-0.020944 -0.029898,0.039063 C 8.069105,3.631112 8.0024144,3.7040865 7.9512307,3.7254722 7.8711961,3.7589131 7.7275279,3.7360688 7.66975,3.6807132 L 7.641396,3.6535482 7.592534,3.6871662 c -0.085256,0.058658 -0.1402215,0.077242 -0.2437736,0.082424 -0.1232599,0.00617 -0.1877322,-0.01646 -0.27696,-0.097207 -0.060102,-0.05439 -0.1305497,-0.1622976 -0.1305497,-0.19997 0,-0.00902 -0.00495,-0.019473 -0.011007,-0.023212 -0.01624,-0.010036 -0.00153,0.043175 0.030041,0.1087697 0.032488,0.067471 0.1317638,0.1649002 0.1977851,0.1941047 0.1017367,0.045003 0.2229466,0.04797 0.3295943,0.00807 z M 6.8777635,3.4582753 c 0.034339,-0.013343 0.034724,-0.013965 0.00529,-0.00855 -0.01746,0.00321 -0.078193,0.00868 -0.1349632,0.012142 -0.0841,0.00513 -0.1122921,0.00283 -0.1521976,-0.012406 C 6.5333596,3.4255834 6.4357254,3.3288089 6.3982075,3.2535206 6.373387,3.2037141 6.369881,3.1840953 6.3699715,3.0955617 6.3700969,2.9729604 6.3944348,2.9106135 6.4725626,2.8327403 6.5342012,2.7713032 6.6059666,2.7359274 6.6992168,2.7210141 l 0.07011,-0.011213 0.012748,-0.071326 c 0.024122,-0.1349757 0.1268939,-0.2626538 0.26499,-0.3292078 0.094468,-0.045528 0.2258819,-0.053037 0.3274454,-0.01871 0.1918155,0.064829 0.3041634,0.2100246 0.3171058,0.4098183 0.00347,0.053574 0.011599,0.1026967 0.018066,0.1091629 0.00862,0.00862 0.0281,0.00701 0.073042,-0.00606 0.090212,-0.026225 0.2165552,-0.01764 0.2933571,0.019936 0.071588,0.035025 0.1380445,0.105092 0.1755399,0.1850763 0.023585,0.050312 0.028141,0.074635 0.028093,0.14999 -4.82e-5,0.076285 -0.00441,0.098825 -0.02874,0.1484582 -0.015777,0.032185 -0.046076,0.078838 -0.067333,0.1036722 -0.021257,0.024834 -0.036269,0.047535 -0.03336,0.050445 0.00291,0.00291 0.022683,-0.015028 0.043941,-0.039864 C 8.3122859,3.2832622 8.3291838,3.0816801 8.234092,2.9455678 8.1203021,2.7826925 7.9271904,2.7283574 7.7321946,2.8043507 7.715936,2.8106875 7.7136764,2.8045055 7.7136764,2.7536828 7.7136764,2.497982 7.5468953,2.2965131 7.3040247,2.2588305 7.0569825,2.2204995 6.7930704,2.410944 6.76502,2.6477867 l -0.00627,0.052963 -0.064821,0.00675 C 6.5703873,2.720355 6.445682,2.8087129 6.3846315,2.9266401 c -0.026655,0.051488 -0.029644,0.067901 -0.029691,0.1630624 -4.28e-5,0.085935 0.00425,0.1153097 0.022847,0.156373 0.052014,0.1148469 0.1666195,0.2161955 0.2596703,0.229634 0.070019,0.010112 0.1922301,0.00124 0.2403059,-0.017436 z"
     id="path62" /><path
     style="fill:#000000;fill-opacity:1;fill-rule:evenodd;stroke:none;stroke-width:0.0053989;stroke-dasharray:none;stroke-opacity:1"
     d="M 7.3858405,4.5583226 C 7.2983928,4.5123531 7.2670677,4.4612671 7.2608897,4.3545484 l -0.00492,-0.085044 -0.033029,-2.323e-4 C 7.1782349,4.2689541 7.1024154,4.2333097 7.058992,4.1921916 6.9815868,4.1188957 6.9495875,3.9789271 6.9887874,3.8851088 l 0.015793,-0.037801 -0.056408,-0.053348 C 6.9171504,3.7646186 6.8830562,3.7244374 6.8724099,3.7046683 L 6.853053,3.6687244 6.7146264,3.663856 C 6.5516262,3.6581225 6.4988971,3.6413638 6.3882788,3.5601367 6.3071448,3.5005594 6.2342783,3.4080923 6.1987114,3.3195768 6.1777511,3.2674142 6.1744174,3.2406341 6.1747031,3.1267373 6.1749942,3.0134864 6.1785052,2.9861383 6.199185,2.9364971 6.2573362,2.7968908 6.3696772,2.684526 6.5112669,2.6243498 l 0.069475,-0.029527 0.029444,-0.075047 C 6.6509013,2.4159985 6.7032208,2.3392976 6.785807,2.262313 6.8688021,2.1849475 6.9264545,2.1493931 7.0238111,2.1155358 7.3550612,2.0003384 7.7278568,2.1850098 7.8529306,2.5262557 l 0.022299,0.060842 h 0.054556 c 0.2322877,0 0.4655587,0.1954247 0.5145275,0.4310499 0.0072,0.034623 0.010295,0.097558 0.00717,0.145624 C 8.4432031,3.291214 8.4164681,3.3515411 8.291131,3.5255975 8.27774,3.5441925 8.263551,3.5796335 8.259598,3.6043545 8.243921,3.7023915 8.16027,3.8074027 8.0555976,3.860444 8.0111826,3.882949 8.0007096,3.894736 7.9793706,3.946221 7.9352686,4.0526253 7.8075057,4.163832 7.7004479,4.1889994 c -0.034958,0.00822 -0.035654,0.015592 -0.00682,0.072119 0.031462,0.061671 0.025019,0.1584272 -0.014531,0.2181916 -0.037269,0.056317 -0.1118859,0.099625 -0.1812232,0.1051816 -0.044291,0.00355 -0.064472,-0.00116 -0.1120378,-0.026167 z m 0.08751,-0.7933539 c 0.027861,-0.00875 0.075427,-0.032575 0.1057026,-0.052949 0.043162,-0.029046 0.058497,-0.034512 0.071027,-0.025318 0.079993,0.058691 0.1573311,0.081188 0.2376781,0.069139 0.1016672,-0.015245 0.2045433,-0.1079793 0.2225022,-0.2005652 0.00443,-0.022847 -9.79e-4,-0.016653 -0.019275,0.022103 -0.029853,0.063213 -0.090848,0.1276593 -0.1404276,0.1483748 -0.079399,0.033175 -0.2232544,0.010102 -0.2808092,-0.04504 l -0.028354,-0.027165 -0.048862,0.033618 C 7.5072766,3.7458242 7.452311,3.7644088 7.3487589,3.7695904 7.2243949,3.7758134 7.1568351,3.7520088 7.0695684,3.6712144 7.0114503,3.6174071 6.9412492,3.5086467 6.9412492,3.4724133 c 0,-0.00902 -0.00495,-0.019473 -0.011007,-0.023212 -0.016312,-0.010081 -0.00119,0.04386 0.029466,0.1051989 0.036125,0.072252 0.1219078,0.1595263 0.1891249,0.1924124 0.09375,0.045868 0.2147083,0.052635 0.3245138,0.018156 z M 6.8830541,3.456488 c 0.019915,-0.012959 0.019603,-0.013372 -0.00529,-0.007 -0.014549,0.00372 -0.072902,0.00945 -0.1296725,0.012726 C 6.6145205,3.4699209 6.5702483,3.4540936 6.483936,3.3677817 6.393676,3.2775218 6.3700728,3.220974 6.3700728,3.0949939 c 0,-0.1219718 0.024408,-0.1844296 0.1024877,-0.2622536 0.061708,-0.061507 0.1334161,-0.096815 0.227022,-0.1117841 l 0.070478,-0.011271 0.00682,-0.054543 C 6.7935339,2.521824 6.9029674,2.3793456 7.0406947,2.311663 c 0.06313,-0.031024 0.086003,-0.03643 0.1692989,-0.040014 0.1131996,-0.00487 0.1966889,0.018044 0.2890142,0.079326 0.069219,0.045945 0.1105043,0.094583 0.1528209,0.1800384 0.026308,0.053126 0.033943,0.08489 0.040157,0.1670521 0.00422,0.055799 0.012779,0.1065593 0.019021,0.1128011 0.00808,0.00808 0.027209,0.00608 0.066373,-0.00693 0.083019,-0.027574 0.220773,-0.018648 0.2984076,0.019333 0.071858,0.035157 0.1382879,0.105134 0.1758299,0.1852181 0.023585,0.050312 0.028141,0.074635 0.028093,0.1499899 -4.82e-5,0.076285 -0.00441,0.098825 -0.02874,0.1484583 -0.015777,0.032185 -0.046076,0.078838 -0.067333,0.1036722 -0.021257,0.024834 -0.036116,0.047689 -0.033018,0.050786 0.00895,0.00895 0.092828,-0.1024014 0.1166011,-0.1547804 0.016648,-0.036678 0.021786,-0.070705 0.022368,-0.1481363 C 8.2902506,3.0710396 8.2867184,3.0502211 8.2624646,2.9984927 8.2230739,2.9144843 8.1675469,2.8578246 8.0833081,2.8156815 7.9706874,2.7593398 7.8570912,2.7556735 7.7321909,2.8043494 c -0.016341,0.00637 -0.018537,-7.2e-5 -0.018674,-0.054758 -8.6e-5,-0.034086 -0.00736,-0.092511 -0.016153,-0.1298347 C 7.6277808,2.3245565 7.3044552,2.1709862 7.0291525,2.302376 6.8960137,2.3659173 6.7826191,2.5138754 6.7661718,2.6455152 c -0.00713,0.057053 -0.0078,0.057974 -0.042116,0.057974 -0.09415,0 -0.2335162,0.072452 -0.2953777,0.1535565 -0.056341,0.073867 -0.072542,0.1278615 -0.072146,0.2404475 3.175e-4,0.090085 0.004,0.1109504 0.028425,0.1608648 0.031964,0.065332 0.1244024,0.1643087 0.1832523,0.1962142 0.034759,0.018844 0.05562,0.021175 0.1667047,0.018613 0.081767,-0.00188 0.1345086,-0.00783 0.1481365,-0.016698 z"
     id="path63" /><path
     style="fill:#000000;fill-opacity:1;fill-rule:evenodd;stroke:none;stroke-width:0.0053989;stroke-dasharray:none;stroke-opacity:1"
     d="M 7.3849774,4.5578408 C 7.3474166,4.5387934 7.3166199,4.5129129 7.2958247,4.4829176 7.2683472,4.4432828 7.2635416,4.4257729 7.2602502,4.3532983 l -0.0038,-0.083794 -0.033269,-1.034e-4 C 7.1376608,4.2691359 7.0119435,4.1695536 6.9854381,4.0810867 6.9686026,4.024899 6.969735,3.9274435 6.9877135,3.8843942 7.0024349,3.8491583 7.002419,3.8491186 6.9470814,3.794843 6.9166329,3.7649782 6.8827337,3.7238561 6.8717498,3.7034602 L 6.851779,3.666377 H 6.7400156 c -0.128501,0 -0.2116029,-0.018174 -0.2911237,-0.063673 C 6.2690475,3.4998077 6.1688151,3.3294711 6.1688151,3.1267371 c 0,-0.1149488 0.025326,-0.2023436 0.08497,-0.2932274 0.05716,-0.087098 0.1246187,-0.1452581 0.2253583,-0.1942952 0.045558,-0.022176 0.089077,-0.045502 0.096708,-0.051836 0.00763,-0.00633 0.024646,-0.040317 0.037811,-0.07552 0.069698,-0.1863716 0.236212,-0.3433991 0.4281,-0.4037117 0.1051095,-0.033037 0.2878889,-0.032133 0.3862128,0.00191 0.1069417,0.037027 0.1782493,0.082498 0.2657491,0.1694606 0.079373,0.078886 0.1350344,0.1679435 0.1674384,0.2678998 0.012687,0.039131 0.013623,0.039679 0.068016,0.039679 0.2263138,0 0.4492797,0.1786534 0.5089689,0.4078151 0.0305,0.1170985 0.01561,0.2613318 -0.037947,0.3675787 -0.012377,0.024556 -0.045507,0.075877 -0.073621,0.1140471 -0.03151,0.042782 -0.055449,0.088741 -0.062415,0.1198274 -0.02508,0.1119121 -0.1108858,0.2211615 -0.2073535,0.264006 -0.035768,0.015886 -0.048816,0.030783 -0.076977,0.087892 -0.046639,0.094579 -0.1156989,0.1651804 -0.205536,0.2101244 -0.040731,0.020376 -0.080558,0.037048 -0.088506,0.037048 -0.019211,0 -0.018383,0.00636 0.00791,0.060673 0.032765,0.067682 0.02517,0.1657083 -0.017624,0.2274459 -0.038537,0.055597 -0.1263171,0.1033841 -0.1899081,0.1033841 -0.026839,0 -0.066058,-0.011277 -0.1012034,-0.029098 z m 0.079634,-0.7902906 c 0.027814,-0.00837 0.076113,-0.032179 0.1073306,-0.052906 0.031218,-0.020728 0.059074,-0.037686 0.061903,-0.037686 0.00283,0 0.025519,0.014282 0.050423,0.031737 0.07992,0.056018 0.203767,0.062991 0.292372,0.016462 0.04186,-0.021982 0.1041702,-0.090599 0.1227317,-0.1351552 0.025823,-0.061986 0.018883,-0.061111 -0.015904,0.00201 -0.01755,0.031842 -0.042062,0.068701 -0.054471,0.08191 -0.079083,0.08418 -0.2628154,0.09082 -0.3517746,0.012713 L 7.6413481,3.655137 7.5748401,3.698123 C 7.4826232,3.7577275 7.4143803,3.7757126 7.3020499,3.7700172 7.1973892,3.7647096 7.147516,3.7439081 7.0708024,3.6735676 7.0144144,3.6218627 6.9540847,3.5321599 6.944937,3.4864209 6.941407,3.4687649 6.933859,3.4514419 6.928168,3.4479239 c -0.013369,-0.00826 -0.00251,0.028383 0.028655,0.096776 0.044768,0.09822 0.1395264,0.1858232 0.2384316,0.220427 0.0605,0.021167 0.2028304,0.02245 0.2693556,0.00243 z m -0.5815571,-0.3115011 0.021161,-0.013475 -0.021161,0.00746 c -0.011639,0.0041 -0.072249,0.00983 -0.1346888,0.012729 -0.1071462,0.00498 -0.1167807,0.00368 -0.1714426,-0.023061 C 6.5086922,3.4063159 6.4301843,3.3238355 6.3948568,3.2484197 6.3743014,3.2045396 6.3700575,3.1782019 6.3699701,3.0940375 6.3698762,3.0018786 6.3728435,2.9866047 6.4022824,2.9276915 6.457715,2.8167613 6.5572999,2.7461741 6.6939503,2.7209538 l 0.071982,-0.013285 0.013179,-0.065116 C 6.8074801,2.5023862 6.9056725,2.3780156 7.0401356,2.311938 7.2190331,2.224025 7.4639934,2.276773 7.5897967,2.4302999 c 0.061729,0.075333 0.09257,0.154449 0.102826,0.2637783 0.011205,0.1194517 0.026329,0.1410782 0.017679,0.025284 C 7.6956125,2.5226786 7.5991026,2.3775597 7.4303471,2.2984041 7.3697072,2.2699608 7.3443684,2.2644382 7.2586852,2.2609908 7.1765006,2.257684 7.1459486,2.2610731 7.0911989,2.279569 6.920449,2.3372527 6.8008541,2.4702469 6.7689991,2.6378677 l -0.012047,0.063389 -0.060453,0.00684 c -0.1221151,0.013816 -0.254072,0.107815 -0.3106037,0.2212596 -0.023437,0.047032 -0.026582,0.066716 -0.026379,0.1650696 2.91e-4,0.1378272 0.015068,0.1751234 0.1080235,0.2725422 0.095158,0.099728 0.1231548,0.1106305 0.2726664,0.1061789 0.074405,-0.00222 0.1299056,-0.00886 0.1428459,-0.017097 z M 8.2539667,3.3224888 c 0.017092,-0.034918 0.030762,-0.07301 0.030377,-0.084649 -3.969e-4,-0.011639 -0.00669,-0.00212 -0.014015,0.021161 -0.018007,0.05723 -0.034486,0.087204 -0.076606,0.1393362 -0.0196,0.024257 -0.035507,0.048066 -0.035351,0.052906 6.35e-4,0.019434 0.066461,-0.069233 0.095597,-0.128755 z m 0.038498,-0.1961796 c -0.015383,-0.18347 -0.1422849,-0.3163898 -0.334373,-0.3502255 -0.052158,-0.00919 -0.079063,-0.008 -0.1435158,0.00634 -0.043628,0.00971 -0.081947,0.021894 -0.085154,0.027082 -0.00321,0.00519 0.01928,0.00198 0.049973,-0.00714 0.085704,-0.02545 0.2211745,-0.015896 0.2963937,0.020905 0.1134448,0.055503 0.1962875,0.1796937 0.2067414,0.3099279 0.00298,0.037183 0.00785,0.067605 0.010803,0.067605 0.00296,0 0.00257,-0.033523 -8.732e-4,-0.074496 z"
     id="path64" /><path
     style="fill:#000000;fill-opacity:1;fill-rule:evenodd;stroke:none;stroke-width:0.0053989;stroke-dasharray:none;stroke-opacity:1"
     d="m 7.3858405,4.5583226 c -0.036476,-0.019175 -0.069853,-0.047341 -0.0899,-0.075864 -0.027677,-0.039379 -0.032387,-0.056425 -0.03569,-0.1291603 l -0.0038,-0.083794 -0.033269,-1.034e-4 C 7.1376608,4.2691359 7.0119435,4.1695536 6.9854381,4.0810867 6.9685735,4.0247998 6.9697456,3.9274189 6.9878193,3.8841904 l 0.014814,-0.035455 -0.056207,-0.055509 C 6.9155129,3.762697 6.8815753,3.7216664 6.87101,3.7020476 L 6.8518013,3.666377 H 6.7400378 c -0.128501,0 -0.2116029,-0.018174 -0.2911237,-0.063673 C 6.2690697,3.4998077 6.1688373,3.3294711 6.1688373,3.1267371 c 0,-0.1149488 0.025326,-0.2023436 0.08497,-0.2932274 0.05716,-0.087098 0.1246188,-0.1452581 0.2253583,-0.1942952 0.045558,-0.022176 0.089077,-0.045502 0.096708,-0.051836 0.00763,-0.00633 0.024646,-0.040317 0.037811,-0.07552 0.069698,-0.1863716 0.2362121,-0.3433991 0.4281001,-0.4037117 0.1051094,-0.033037 0.2878888,-0.032133 0.3862128,0.00191 0.1072155,0.037122 0.1782844,0.082537 0.2669291,0.1705776 0.067349,0.06689 0.089428,0.097788 0.1252736,0.1753145 0.023934,0.051763 0.047165,0.1012559 0.051625,0.1099854 0.00553,0.010821 0.033127,0.018174 0.086723,0.023106 0.1367465,0.012584 0.235471,0.060083 0.3390633,0.1631323 0.1116439,0.1110591 0.1642676,0.2518108 0.1538867,0.4115977 -0.00659,0.1014855 -0.035341,0.1826663 -0.095706,0.2702656 -0.068312,0.099132 -0.091518,0.1405162 -0.091717,0.1635627 -3.175e-4,0.038334 -0.06035,0.1473759 -0.1043731,0.1896224 -0.023778,0.022818 -0.065914,0.053767 -0.093638,0.068778 -0.041247,0.022331 -0.057746,0.040752 -0.090788,0.10136 -0.022209,0.040737 -0.060392,0.094547 -0.084852,0.119576 -0.041723,0.042696 -0.1726123,0.1185003 -0.2046105,0.1185003 -0.019211,0 -0.018383,0.00636 0.00791,0.060673 0.031504,0.06508 0.02508,0.1632223 -0.01461,0.2231999 -0.037269,0.056317 -0.111886,0.099625 -0.1812232,0.1051817 -0.044291,0.00355 -0.064472,-0.00116 -0.1120378,-0.026167 z M 7.474995,3.7627139 c 0.031385,-0.01103 0.078549,-0.034839 0.1048083,-0.052906 0.053865,-0.03706 0.062671,-0.039024 0.08021,-0.017891 0.046967,0.056592 0.2052624,0.080528 0.2917391,0.044115 0.068525,-0.028855 0.1399902,-0.1081455 0.1581496,-0.1754674 0.00392,-0.014549 -0.0076,-3.969e-4 -0.025604,0.031442 -0.018005,0.031842 -0.042892,0.068701 -0.055301,0.08191 -0.079083,0.08418 -0.2628154,0.09082 -0.3517747,0.012713 l -0.035874,-0.031498 -0.066508,0.042986 C 7.4829026,3.7575397 7.4144078,3.775651 7.3020501,3.7702476 7.2266923,3.7666228 7.201387,3.7605956 7.154678,3.7351475 7.0877821,3.698699 6.9976729,3.6045417 6.9667688,3.5387957 6.9546165,3.5129406 6.9391153,3.479883 6.932324,3.4653339 l -0.012348,-0.026453 0.00637,0.026453 c 0.03184,0.1322898 0.1445379,0.2550903 0.2777879,0.3026883 0.059466,0.021241 0.203346,0.018423 0.270864,-0.00531 z M 6.8786649,3.4580845 c 0.00812,-0.00812 -0.00175,-0.00884 -0.034439,-0.00254 -0.025202,0.00487 -0.084169,0.00906 -0.1310383,0.00932 C 6.6068439,3.4654426 6.5415784,3.4363424 6.4690563,3.356035 6.3908016,3.2693792 6.3700932,3.2146205 6.3699704,3.094025 6.3698765,3.0018662 6.3728438,2.9865923 6.4022826,2.9276791 6.4577152,2.8167488 6.5573002,2.7461617 6.6939506,2.7209414 l 0.071982,-0.013285 0.013179,-0.065116 C 6.8074806,2.502374 6.9056732,2.3780033 7.0401363,2.3119258 c 0.136598,-0.067127 0.3165607,-0.054488 0.4497324,0.031586 0.1212435,0.078363 0.1868781,0.1916124 0.2033556,0.3508795 0.010694,0.103378 0.020492,0.1352817 0.020391,0.066401 C 7.7133243,2.5587925 7.6042276,2.3804225 7.4307202,2.2982337 7.3631009,2.2662031 7.3525517,2.2643586 7.2369748,2.2643586 c -0.1204063,0 -0.1234591,6.059e-4 -0.2043602,0.04059 -0.1416413,0.070003 -0.2360843,0.1893817 -0.2625929,0.3319258 l -0.011946,0.064243 -0.061014,0.0069 c -0.084159,0.00952 -0.1755089,0.057832 -0.2417064,0.127826 -0.084321,0.089157 -0.099044,0.1318091 -0.094488,0.273726 0.00335,0.1043297 0.00695,0.1230734 0.031745,0.1652892 0.033963,0.05782 0.143261,0.1640615 0.1910773,0.1857325 0.041015,0.01859 0.2758737,0.016581 0.2949763,-0.00251 z M 8.2532743,3.3234442 c 0.017481,-0.034393 0.031672,-0.070104 0.031534,-0.079359 -1.381e-4,-0.00926 -0.011552,0.010652 -0.025363,0.044241 -0.013811,0.033587 -0.042268,0.082004 -0.063236,0.1075923 -0.020968,0.025588 -0.037995,0.050485 -0.037839,0.055325 5.821e-4,0.018182 0.064334,-0.067658 0.094904,-0.1277993 z m 0.039253,-0.1993525 c -0.00251,-0.013094 -0.00459,-0.00238 -0.00459,0.023807 0,0.026188 0.00206,0.036902 0.00459,0.023807 0.00251,-0.013094 0.00251,-0.034521 0,-0.047614 z M 8.260196,2.9949711 C 8.1908308,2.8434572 8.0056486,2.7476384 7.8401822,2.7776432 c -0.035387,0.00642 -0.074757,0.016293 -0.087487,0.021945 -0.017238,0.00765 -0.013692,0.0082 0.013888,0.00212 0.02037,-0.00448 0.084649,-0.0081 0.1428459,-0.00802 0.1239332,1.513e-4 0.1754404,0.018447 0.2528792,0.089828 0.047718,0.043985 0.1108424,0.1521357 0.1136123,0.1946521 0.00135,0.020553 0.00177,0.020426 0.00604,-0.00175 0.00251,-0.013131 -0.00727,-0.049778 -0.021759,-0.081438 z"
     id="path65" /><path
     style="fill:#000000;fill-opacity:1;fill-rule:evenodd;stroke:none;stroke-width:0.0053989;stroke-dasharray:none;stroke-opacity:1"
     d="M 7.3857254,4.5586091 C 7.3478106,4.5391305 7.3165458,4.512806 7.2958247,4.4829176 7.2683472,4.4432828 7.2635416,4.4257729 7.2602502,4.3532983 l -0.0038,-0.083794 -0.033269,-1.034e-4 C 7.1376608,4.2691359 7.0119435,4.1695536 6.9854381,4.0810867 6.969616,4.0282804 6.969481,3.9398014 6.985147,3.8875377 L 6.997291,3.8470047 6.933134,3.7784207 C 6.897848,3.7406997 6.865874,3.7000587 6.86208,3.6881067 c -0.00639,-0.02014 -0.015203,-0.02173 -0.1203537,-0.02173 -0.1777912,0 -0.2778053,-0.034459 -0.3933324,-0.1355193 -0.1178438,-0.1030878 -0.17956,-0.2419861 -0.17956,-0.4041203 0,-0.1151838 0.025336,-0.2023589 0.08542,-0.2939172 0.056258,-0.085727 0.1223864,-0.1419307 0.2380818,-0.2023496 l 0.093186,-0.048664 0.029003,-0.072581 c 0.07666,-0.1918416 0.235272,-0.340736 0.427256,-0.4010788 0.1051094,-0.033037 0.2878889,-0.032133 0.3862128,0.00191 0.1071563,0.037101 0.1782739,0.082527 0.2667109,0.1703593 0.063652,0.063218 0.090927,0.1003931 0.1243287,0.1694643 0.023535,0.048665 0.042789,0.094518 0.042789,0.1018954 0,0.019936 0.035601,0.035321 0.081731,0.035321 0.1687266,0 0.3690239,0.1320618 0.4520711,0.298063 0.046741,0.093431 0.062724,0.1731293 0.055871,0.278611 C 8.4443752,3.2733316 8.4160682,3.3463092 8.331786,3.4723689 8.294453,3.5282079 8.263903,3.5839894 8.263899,3.5963277 8.2638844,3.6354667 8.204534,3.7441962 8.1597,3.7872212 8.135922,3.8100392 8.093786,3.8409882 8.066062,3.8559992 8.024815,3.8783302 8.008316,3.8967512 7.975274,3.9573592 7.953065,3.9980962 7.914882,4.0519062 7.890422,4.0769353 7.848699,4.1196313 7.7178097,4.1954356 7.6858115,4.1954356 c -0.018362,0 -0.018547,-0.00138 0.00785,0.058309 0.031165,0.070452 0.025014,0.1657747 -0.014552,0.2255645 -0.037379,0.056483 -0.1119203,0.099676 -0.1812232,0.1050094 -0.04371,0.00336 -0.065119,-0.00153 -0.1121529,-0.02571 z m 0.069437,-0.7913357 c 0.0287,-0.00852 0.08075,-0.032723 0.1156682,-0.053777 0.049561,-0.029884 0.066968,-0.035709 0.079359,-0.026557 0.00873,0.00645 0.041178,0.023995 0.072108,0.038994 0.04892,0.023723 0.067048,0.02678 0.1393454,0.023498 0.072048,-0.00327 0.089164,-0.00803 0.1286013,-0.035747 0.050899,-0.035773 0.1149358,-0.1139121 0.1149358,-0.1402464 0,-0.00947 -0.015475,0.00857 -0.034389,0.04009 -0.050141,0.08357 -0.1073489,0.1199761 -0.1964399,0.1250103 -0.089452,0.00505 -0.1506932,-0.011136 -0.1974726,-0.05221 l -0.03652,-0.032065 -0.048344,0.033261 c -0.084489,0.05813 -0.1405313,0.077262 -0.24868,0.084895 l -0.1005213,0.0071 0.080083,0.00164 c 0.044519,8.996e-4 0.1032574,-0.00525 0.1322647,-0.013869 z m -0.2205045,-0.00148 c -0.00352,-0.00352 -0.012642,-0.00389 -0.02028,-8.467e-4 -0.00844,0.00338 -0.00593,0.00588 0.00639,0.00639 0.011155,4.498e-4 0.017404,-0.00204 0.013888,-0.00556 z m -0.081784,-0.03146 C 7.0652046,3.6845941 6.9641341,3.5672699 6.9461178,3.494329 c -0.00397,-0.01606 -0.01156,-0.031886 -0.016875,-0.03517 -0.017394,-0.01075 0.029092,0.096954 0.063317,0.1466987 0.034864,0.050673 0.1006954,0.1093126 0.1550226,0.138086 0.052252,0.027675 0.056716,0.019566 0.00529,-0.00961 z M 6.7137552,3.4662014 C 6.5899976,3.4589942 6.5392887,3.435691 6.4647143,3.3517501 6.3905762,3.268301 6.3700911,3.2125787 6.3699704,3.0940343 6.3698765,3.0018754 6.3728438,2.9866015 6.4022826,2.9276884 6.4577152,2.8167581 6.5573002,2.746171 6.6939506,2.7209506 l 0.071982,-0.013285 0.013179,-0.065116 C 6.8118306,2.4808925 6.9332523,2.3444407 7.093757,2.2889564 7.123362,2.2787224 7.13751,2.2701944 7.125197,2.2700044 7.082609,2.2693482 6.958069,2.3416094 6.897658,2.4020307 6.829742,2.4699587 6.7859549,2.5512038 6.7694607,2.639897 L 6.7580597,2.7012 6.7059147,2.70812 C 6.5787983,2.724982 6.4573492,2.804916 6.3932944,2.9138767 c -0.026928,0.045806 -0.028719,0.056769 -0.028719,0.1758262 0,0.1555234 0.00997,0.1801492 0.1164492,0.2875108 0.087515,0.088243 0.110023,0.097121 0.2433108,0.095973 l 0.09523,-8.202e-4 z m 0.1454912,-0.00788 c -0.00727,-0.00293 -0.019177,-0.00293 -0.026453,0 -0.00727,0.00293 -0.00132,0.00534 0.013227,0.00534 0.01455,0 0.0205,-0.00241 0.013226,-0.00534 z M 8.2463599,3.3383558 c 0.014147,-0.026188 0.028718,-0.059519 0.032378,-0.074068 0.00366,-0.014549 -0.00522,-0.00108 -0.019733,0.029926 -0.014512,0.031008 -0.039976,0.073862 -0.056587,0.09523 -0.042879,0.05516 -0.052211,0.077613 -0.013949,0.033561 0.017693,-0.020368 0.043742,-0.058461 0.05789,-0.084649 z m 0.045707,-0.2036876 c -0.00293,-0.00728 -0.00534,-0.00132 -0.00534,0.013227 0,0.014549 0.00241,0.0205 0.00534,0.013227 0.00293,-0.00727 0.00293,-0.01918 0,-0.026453 z m -0.010361,-0.073407 c -0.00338,-0.00844 -0.00588,-0.00593 -0.00639,0.00639 -4.498e-4,0.011155 0.00204,0.017404 0.00556,0.013888 0.00352,-0.00352 0.00389,-0.012642 8.466e-4,-0.02028 z M 8.2479017,2.9721397 C 8.1640737,2.8290983 8.0019209,2.7524006 7.8388537,2.7786618 c -0.036018,0.0058 -0.072966,0.015131 -0.082106,0.020735 -0.011478,0.00704 -0.0068,0.00769 0.015126,0.00212 0.01746,-0.00444 0.079359,-0.00808 0.1375553,-0.00808 0.094202,0 0.1123614,0.00322 0.1655056,0.029315 0.068542,0.03366 0.1362218,0.102104 0.170276,0.1721985 0.012949,0.02665 0.025247,0.043338 0.027332,0.037084 0.00209,-0.00625 -0.009,-0.033201 -0.024641,-0.059883 z M 7.7028095,2.6594723 C 7.6761344,2.5013246 7.5734084,2.3656229 7.4291702,2.2979933 7.3701454,2.2703181 7.3480167,2.2659524 7.2545807,2.2635494 l -0.1069972,-0.00275 0.100521,0.0082 c 0.056213,0.00458 0.1242798,0.017473 0.1544225,0.029242 0.1664893,0.065003 0.2690542,0.2013342 0.2902664,0.3858283 0.013375,0.1163238 0.012806,0.1138166 0.017973,0.079313 0.00249,-0.016529 -0.00111,-0.063287 -0.00796,-0.1039048 z"
     id="path66" /><path
     style="fill:#000000;fill-opacity:1;fill-rule:evenodd;stroke:none;stroke-width:0.135;stroke-dasharray:none;stroke-opacity:1"
     d="m 6.5709093,2.7722676 c 0.039923,1.371e-4 0.097117,0.0029 0.1375553,-0.010581 0.021426,-0.00714 0.034115,-0.029797 0.052906,-0.042325 0.068468,-0.045645 0.1168241,-0.075793 0.1375553,-0.1587176 0.021556,-0.086227 -0.061501,-0.078041 -0.010581,-0.1798799 0.010581,-0.021162 0.015915,-0.045901 0.031744,-0.063487 0.066049,-0.073388 0.2057075,-0.052906 0.2856918,-0.052906 0.069835,0 0.1480712,-0.010646 0.2010423,0.042325"
     id="path67" /><path
     style="fill:#000000;fill-opacity:1;fill-rule:evenodd;stroke:none;stroke-width:0.135;stroke-dasharray:none;stroke-opacity:1"
     id="path68"
     d="m 6.7669578,3.2417377 c 0.00386,0.028404 -5.291e-4,0.056805 -0.00744,0.08435 -0.00416,0.013697 -0.0054,0.028656 -0.00185,0.042698 0.00315,0.01247 0.00826,0.021865 0.013692,0.033474 0.011605,0.023667 0.027039,0.04511 0.040547,0.067665 0.00172,0.00285 0.010422,0.018399 0.012663,0.022386 0.00135,0.00167 0.00622,0.013922 0.00843,0.015169 0.00697,0.00392 0.00424,-0.00405 0.00962,0.00618 0.00153,0.00291 0.00204,0.00625 0.00304,0.00938 2.646e-4,0.00325 7.144e-4,0.00649 7.938e-4,0.00975 1.55e-4,0.00564 -7.409e-4,0.012269 -6.615e-4,0.017889 1.101e-4,0.010139 7.144e-4,0.01841 0.00414,0.028265 0.00222,0.00637 0.00559,0.012274 0.00838,0.018412 0.00413,0.00534 0.00787,0.011012 0.012401,0.016023 0.00429,0.00475 0.020034,0.019055 0.026352,0.022715 0.160133,0.09275 0.2826158,0.190383 0.4423606,0.2491946 0.011906,0.00297 0.021384,0.012121 0.033536,0.014414 0.00206,3.969e-4 0.00418,2.646e-4 0.00627,3.969e-4 0.013181,-0.00294 0.026686,-0.00167 0.040022,-0.00249 0.012433,-7.673e-4 0.016354,-0.00185 0.028747,-0.0041 0.015214,-0.00266 0.029757,-0.00789 0.044554,-0.012099 0.011187,-0.00318 0.022564,-0.00527 0.033725,-0.00852 0.00648,-0.00509 0.012443,-0.010803 0.018907,-0.015912 0.00332,-0.00262 0.00686,-0.00495 0.010205,-0.00753 0.011128,-0.00859 0.010171,-0.00932 0.022857,-0.015949 0.00403,-0.00212 0.00832,-0.00369 0.012483,-0.00553 0.03464,-0.013716 -0.00864,0.00319 0.022114,-0.00816 0.013105,-0.00483 0.00956,-0.00472 0.024725,-0.00837 0.00807,-0.00193 0.021931,-0.00398 0.030134,-0.00529 0.0019,-6.35e-4 0.027425,-0.00897 0.02917,-0.00973 0.027555,-0.011967 0.00329,-0.00536 0.034152,-0.01506 0.014131,-0.00445 0.02232,-0.00557 0.036633,-0.00826 0.027217,-0.00431 0.054844,-0.00544 0.082362,-0.005 0.00863,-1.656e-4 0.013025,-3.75e-5 0.021635,-0.00106 0.00369,-4.498e-4 0.0073,-0.00138 0.010993,-0.00175 0.013118,-0.00132 0.026459,-9.525e-4 0.03961,-6.879e-4 0.01351,0.00122 0.027113,0.00101 0.04059,0.00267 0.00241,2.91e-4 0.019889,0.00306 0.022066,0.0034 0.00665,-8.202e-4 0.012623,0.00423 0.019151,0.00411 0.00317,-5.71e-5 0.00615,-0.00156 0.00922,-0.00235 0,0 -0.3978799,-0.2870872 -0.3978799,-0.2870872 v 0 c -7.143e-4,-6.615e-4 -0.00116,-0.00177 -0.00212,-0.00198 -0.00484,-0.00106 -0.01006,0.00188 -0.014859,-3.17e-5 -0.021632,-0.00135 -0.043564,-0.00332 -0.065042,6.35e-4 -0.013044,0.00116 -0.026175,0.00228 -0.039277,0.00249 -0.01211,1.794e-4 -0.024011,-5.027e-4 -0.036029,0.00175 -0.026971,0.00563 -0.055354,0.00602 -0.080565,0.018344 -0.017113,0.00739 -0.034176,0.014229 -0.052444,0.018352 -0.00684,0.00153 -0.013862,0.00214 -0.02072,0.00359 -0.00947,0.00198 -0.018553,0.00568 -0.028253,0.00673 -0.015248,0.00491 -0.030633,0.00919 -0.046011,0.013671 -0.00597,0.00175 -0.012105,0.00303 -0.017875,0.00535 -0.00618,0.00249 -0.015354,0.00927 -0.020836,0.01307 -0.010083,0.00659 -0.014925,0.010033 -0.025678,0.015899 -0.00449,0.00246 -0.00917,0.00453 -0.0137,0.00689 -0.00954,0.00498 -0.018412,0.010475 -0.029553,0.010835 -0.00758,0.00384 -0.014981,0.00784 -0.02322,0.010176 -0.01256,0.00357 -0.025694,0.00455 -0.038688,0.00459 -0.013327,-8.996e-4 -0.0264,-0.00233 -0.039505,-0.00503 -0.00762,-0.00156 -0.015544,-0.00348 -0.022625,-0.00686 -0.00233,-0.00111 -0.00432,-0.00279 -0.00648,-0.00419 -0.00468,-0.00304 -0.00914,-0.00562 -0.014372,-0.00763 -0.00994,-0.0038 -0.00315,-7.409e-4 -0.013504,-0.00444 -0.00214,-7.673e-4 -0.00422,-0.00172 -0.00634,-0.00257 -0.1396587,-0.064779 -0.3138413,-0.3116259 0.3808336,0.220717 0.00492,0.00287 -0.01052,-0.00435 -0.015706,-0.00669 -0.00498,-0.00225 -0.0099,-0.00466 -0.014803,-0.00709 -0.00416,-0.00206 -0.00826,-0.00426 -0.012388,-0.00638 -0.00693,-0.00352 -0.00988,-0.00368 -0.013994,-0.010009 -0.00567,-0.00872 -0.00386,-0.026421 -0.00429,-0.0364 5.292e-4,-0.0038 9.525e-4,-0.00761 0.00156,-0.01139 7.143e-4,-0.00439 0.00386,-0.017854 0.00304,-0.022569 -9.79e-4,-0.00565 -0.015013,-0.018881 -0.018304,-0.023021 -0.00127,-0.00146 -0.021246,-0.024291 -0.021556,-0.024675 -0.014904,-0.018513 -0.027627,-0.038717 -0.039549,-0.059228 -0.00789,-0.016015 -0.00345,-0.00656 -0.00948,-0.020198 -9.261e-4,-0.00209 -0.00204,-0.0041 -0.0028,-0.00626 -0.00269,-0.00755 -0.00257,-0.015666 -0.00364,-0.023511 -0.00138,-0.021696 -0.0027,-0.045976 0.00732,-0.066078 0.00138,-0.00274 0.00353,-0.00499 0.0053,-0.00749 z" /><path
     style="fill:#000000;fill-opacity:1;fill-rule:evenodd;stroke:none;stroke-width:0.135;stroke-dasharray:none;stroke-opacity:1"
     id="path69"
     d="m 7.6024953,3.5384874 c -0.00262,0.00127 -0.0051,0.00284 -0.00784,0.00381 -0.024601,0.0087 -0.050993,0.010544 -0.076777,0.012353 -0.042407,0.00297 -0.040035,0.00225 -0.083847,0.00257 -0.01501,-9.26e-4 -0.030058,-0.00135 -0.045032,-0.00274 -0.025747,-0.00238 -0.05737,-0.00722 -0.082884,-0.012465 -0.0181,-0.00372 -0.040603,-0.00942 -0.058386,-0.015663 -0.00633,-0.00222 -0.012409,-0.00511 -0.018613,-0.00767 -0.021564,-0.014195 -0.00451,-0.00259 -0.023966,-0.016753 -0.00373,-0.00271 -0.015285,-0.01029 -0.011287,-0.00799 0.1318104,0.075682 0.2631128,0.1522468 0.3947763,0.2281848 0.00389,0.00225 -0.00758,-0.00486 -0.011467,-0.00711 C 7.4371138,3.633974 7.2969243,3.5531663 7.1568031,3.4722405 c -0.00529,-0.00122 -0.010573,-0.00251 -0.015878,-0.00369 -0.022087,-0.00488 -0.019529,-0.00373 -0.042976,-0.00966 -0.023577,-0.00596 -0.046788,-0.01289 -0.069876,-0.020492 -0.00829,-0.00327 -0.023331,-0.00931 -0.032212,-0.012451 -0.00882,-0.00312 -0.013388,-0.00527 -0.022783,-0.00435 -0.010165,9.79e-4 -0.014557,0.00425 -0.023741,0.00873 -0.018389,0.01097 -0.038336,0.01927 -0.058763,0.025622 -0.0087,0.00271 -0.017547,0.00495 -0.026281,0.00755 -0.00341,0.00153 -0.00689,0.00294 -0.010239,0.0046 -0.00541,0.00268 -0.010522,0.00567 -0.015184,0.00953 -0.00333,0.00276 -0.00575,0.00668 -0.00947,0.00889 -3.968e-4,2.318e-4 -8.731e-4,-2.334e-4 -0.00132,-3.44e-4 -5.821e-4,2.152e-4 -0.00127,2.646e-4 -0.00177,6.35e-4 -0.0053,0.00392 -0.0091,0.010099 -0.013219,0.015105 -0.0083,0.010499 -0.014552,0.023979 -0.018759,0.036534 -5.292e-4,0.00159 -2.048e-4,0.00337 -3.175e-4,0.00505 0.00127,0.00834 0.00366,-0.011808 0.00573,-0.00894 0.00198,0.00275 -0.00589,0.00944 -0.00243,0.011509 0.4798356,0.2870692 0.2954346,0.1483881 0.4298355,0.2495823 0.035621,0.013512 0.07354,0.019375 0.1107379,0.026853 0.038309,0.00793 0.076832,0.014917 0.1157171,0.019288 0.00386,7.673e-4 0.00799,6.88e-4 0.011573,0.0023 0.00296,0.00135 0.010255,0.00793 0.00741,0.00634 C 7.3379049,3.7754155 7.203745,3.6994634 7.0694935,3.6236775 c -0.00548,-0.0031 0.011491,0.00527 0.01678,0.00869 0.00772,0.00499 0.014176,0.011843 0.022117,0.016478 0.1383634,0.080792 0.2777556,0.1598092 0.4166333,0.2397136 0.00991,-1.021e-4 0.01987,6.879e-4 0.02973,-3.175e-4 0.035159,-0.00356 0.068141,-0.017095 0.1006015,-0.030098 0.027805,-0.011139 0.036882,-0.01528 0.064088,-0.027045 0.043987,-0.018127 0.087344,-0.038603 0.1332566,-0.051605 0.00854,-0.00241 0.017246,-0.00424 0.025871,-0.00636 0.024334,-0.00617 0.049088,-0.010716 0.07409,-0.013081 0.018084,-0.00172 0.036323,-0.00228 0.054438,-0.00372 0.010332,-0.00132 0.020685,-0.00246 0.031061,-0.00339 7.408e-4,-6.61e-5 0.00821,-8.466e-4 0.0098,-5.291e-4 7.937e-4,1.553e-4 0.0014,8.202e-4 0.00212,0.00122 0.00138,-3.439e-4 0.00287,-3.439e-4 0.00411,-0.00103 0.00269,-0.00148 0.00498,-0.00357 0.00748,-0.00536 0.0032,-0.00196 0.0063,-0.00406 0.0096,-0.00584 0.00336,-0.0018 0.00687,-0.00331 0.010337,-0.00491 0.00332,-0.00153 0.00693,-0.00254 0.010007,-0.0045 0.00371,-0.00238 0.00679,-0.00563 0.010184,-0.00845 0.022884,-0.026186 -0.00369,0.00439 0.019357,-0.022675 0.00328,-0.00385 0.00686,-0.00745 0.00995,-0.011459 0.00985,-0.012756 0.017608,-0.027203 0.026072,-0.040874 0.00723,-0.010565 0.015539,-0.020309 0.021532,-0.031681 0.00206,-0.00391 0.00365,-0.00807 0.00569,-0.011988 0.00701,-0.013457 0.010078,-0.017555 0.018539,-0.030798 0.016685,-0.028655 0.03856,-0.053683 0.059443,-0.079261 0.018132,-0.022209 0.013671,-0.016751 0.031198,-0.039371 0.014319,-0.020492 0.0312,-0.039523 0.043493,-0.06141 0.00451,-0.00802 0.00849,-0.016359 0.011946,-0.024887 0.00701,-0.017301 0.012949,-0.039994 0.018039,-0.057854 0.00262,-0.010155 0.00532,-0.020294 0.00789,-0.030464 0.015811,-0.062577 -2.143e-4,-0.00127 0.015933,-0.062708 0.0051,-0.019386 0.00984,-0.036188 0.013978,-0.055734 0.00169,-0.00799 0.00296,-0.01606 0.00443,-0.02409 0.00382,-0.024966 0.00354,-0.050425 -0.00694,-0.073838 -0.00471,-0.010515 -0.00855,-0.014912 -0.015137,-0.024037 -0.015134,-0.019333 -0.034528,-0.034402 -0.052486,-0.050907 -0.00891,-0.00774 -0.00472,-0.00357 -0.01256,-0.012552 C 8.1808946,2.8957413 8.0406228,2.81276 7.8983487,2.7333128 c -0.00347,-0.00193 -0.00796,4.233e-4 -0.011935,3.175e-4 -0.00794,-2.027e-4 -0.017762,-0.00156 -0.025588,-0.00251 -0.013729,-0.00167 -0.027328,-0.0042 -0.040965,-0.00647 -0.011136,-0.00185 -0.01292,-0.00148 -0.023625,-0.00491 -0.00367,-0.00116 -0.0072,-0.00274 -0.010798,-0.00412 -0.00307,-0.00196 -0.00654,-0.00338 -0.00922,-0.00583 -0.00246,-0.00228 -0.00878,-0.00994 -0.00596,-0.00811 0.1362432,0.088497 0.2739845,0.1748769 0.4067839,0.2684624 0.00411,0.00289 -0.00863,0.00894 -0.00661,0.013541 0.00156,0.00356 0.00749,-0.00206 0.011298,-0.00282 0.00617,-0.00122 0.012417,-0.00206 0.018624,-0.00311 0.033299,-0.00442 0.066901,-0.00386 0.1003411,-0.00177 0.00709,4.498e-4 0.014203,7.673e-4 0.021257,0.00164 0.00578,6.879e-4 0.011462,0.00201 0.017193,0.00303 0.0074,0.00196 0.017365,0.00399 0.024297,0.00788 0.00266,0.00148 0.00486,0.00369 0.00715,0.00571 0.00188,0.00164 0.00752,0.0065 0.00534,0.00528 C 7.9551153,2.7624212 7.8410886,2.8715681 7.9608367,2.7588453 c 0.00278,-0.0161 0.015454,-0.027531 0.021037,-0.042236 4.233e-4,-0.00114 -0.00238,-6.35e-4 -0.00362,-6.615e-4 -0.00265,-6.72e-5 -0.00529,1.461e-4 -0.00793,3.705e-4 -0.012391,0.00106 -0.010872,0.0014 -0.024887,0.00503 -0.028266,0.00416 -0.055827,0.00525 -0.084363,0.00332 -0.011115,-7.408e-4 -0.02217,-0.00225 -0.033254,-0.00335 0,0 0.3599137,0.2648799 0.3599137,0.2648799 v 0 c 0.027351,5.292e-4 0.038368,4.233e-4 0.066444,0.00233 0.012308,8.467e-4 0.024582,0.00212 0.036871,0.00319 0.010509,9.261e-4 0.021013,0.0019 0.03152,0.00284 0.017621,0.00217 0.034932,0.00527 0.052662,0.00254 0.00426,-6.614e-4 0.00926,1.09e-5 0.01265,-0.00265 0.021783,-0.016999 0.021688,-0.025032 0.030944,-0.048428 -0.03908,-0.1661101 -6.35e-4,-0.010488 -0.4277037,-0.2497134 -0.00175,-9.79e-4 -0.00399,3.704e-4 -0.00597,6.35e-4 -0.0096,0.00122 -0.01919,0.00259 -0.028825,0.00359 -0.02508,0.00358 -0.050238,0.00644 -0.075571,0.0075 -0.00941,3.969e-4 -0.018825,4.498e-4 -0.028239,6.085e-4 -0.00947,1.638e-4 -0.018939,2.419e-4 -0.028409,3.705e-4 -0.00434,9.2e-5 -0.045417,3.704e-4 -0.050881,0.00266 -0.010602,0.00442 -0.037284,0.012634 -0.028252,0.01973 0.1282499,0.1007827 0.2694977,0.1838246 0.4042469,0.2757369 0.0027,-1.339e-4 0.00541,-4.763e-4 0.00811,-3.969e-4 0.00336,9.1e-5 0.0067,5.821e-4 0.010049,8.996e-4 0.024532,0.00315 0.049202,0.00588 0.07336,0.011271 0.0076,0.00212 0.019344,0.00486 0.026624,0.00864 0.00356,0.00185 0.013417,0.00881 0.00994,0.0068 C 8.1417556,2.9560977 8.0063164,2.877658 7.8711241,2.7987953 c -0.00279,-0.00164 0.00617,0.00212 0.00891,0.00382 0.00324,0.00201 0.0059,0.00485 0.00884,0.00728 0.00326,0.00241 0.00659,0.00474 0.00978,0.00724 0.010716,0.00841 0.00815,0.00713 0.018547,0.015835 0.029965,0.025091 -0.011033,-0.00978 0.019169,0.014825 0.00333,0.00271 0.00645,0.00569 0.00967,0.00853 0.00501,0.00401 0.01605,0.012774 0.020889,0.016888 0.0066,0.00561 0.015137,0.012761 0.019857,0.020177 0.00725,0.011396 0.0087,0.020881 0.012279,0.033866 8.731e-4,0.00756 0.00235,0.015081 0.00259,0.022691 0.00159,0.049006 -0.014555,0.098101 -0.030732,0.1436441 -0.0081,0.022019 -0.00953,0.027914 -0.019854,0.048411 -0.014245,0.028274 -0.033151,0.053687 -0.052298,0.078757 -0.014703,0.019637 -0.029183,0.039662 -0.044853,0.058546 -0.016102,0.019407 -0.033611,0.037685 -0.051469,0.055467 -0.00448,0.00462 -0.02313,0.023783 -0.028015,0.029039 -0.00377,0.00405 -0.00773,0.00795 -0.011086,0.012351 -0.00769,0.010083 -0.010591,0.022336 -0.01664,0.033296 -0.010858,0.016909 -0.024538,0.037541 -0.042136,0.048105 -0.00282,0.00169 -0.00596,0.00278 -0.00895,0.00417 -0.00235,7.673e-4 -0.00473,0.0014 -0.00704,0.00228 -0.00718,0.00272 -0.00896,0.00462 -0.016872,0.00592 -0.012338,0.00201 -0.00709,-9.1e-5 -0.018558,-0.00111 -0.00212,-1.887e-4 -0.00424,1.873e-4 -0.00636,2.91e-4 -0.01039,0.00424 -0.019704,0.010927 -0.030879,0.013388 -0.037668,0.011636 -0.07542,0.023006 -0.1134298,0.033484 -0.010205,0.00348 -0.04345,0.014684 -0.053,0.018441 -0.035209,0.013856 -0.067982,0.032962 -0.1016997,0.049931 -0.00945,0.00441 -0.018751,0.00913 -0.028338,0.013213 -0.038847,0.016555 -0.082831,0.029928 -0.1249966,0.017208 -0.00938,-0.00283 -0.017804,-0.00821 -0.026706,-0.012316 0.1236602,0.072187 0.2471087,0.1447376 0.3709805,0.2165606 0.00505,0.00293 -0.010276,-0.0058 -0.014478,-0.00986 -0.00374,-0.00361 -0.00448,-0.010149 -0.00897,-0.012771 C 7.3744679,3.714264 7.232552,3.6340078 7.0896106,3.555652 c -0.00624,-0.00342 -0.014867,0.00415 -0.021333,0.00101 -0.031541,-0.00183 -0.063202,-0.00413 -0.094077,-0.011221 -0.021593,-0.0057 -0.028852,-0.00696 -0.049915,-0.015251 -0.027328,-0.010763 -0.05273,-0.025442 -0.0771,-0.041709 -0.1562653,-0.080797 0.083155,0.042801 0.4133469,0.2404668 0.0019,0.00114 -0.00225,0.00383 -0.00349,0.00566 -6.614e-4,9.789e-4 -0.00161,0.00376 -0.00225,0.00276 -8.732e-4,-0.00135 6.085e-4,-0.00314 0.00101,-0.00469 6.614e-4,-0.00267 0.00143,-0.00532 0.00214,-0.00798 -0.00579,0.0096 -0.01029,0.023466 -0.018775,0.031483 -2.633e-4,2.487e-4 2.206e-4,-6.879e-4 3.439e-4,-0.00103 0.0019,-0.00342 0.007,-0.00428 0.00879,-0.00799 0.00116,-0.00153 0.00241,-0.00305 0.00351,-0.00463 6.879e-4,-9.525e-4 0.00103,-0.00217 0.00185,-0.00301 0.00332,-0.00342 0.00759,-0.00575 0.011568,-0.00828 0.01524,-0.00924 0.030783,-0.016314 0.048227,-0.020458 0.00531,-0.00127 0.010657,-0.00249 0.016087,-0.00303 0.00457,-4.498e-4 0.00918,2.59e-5 0.013769,3.89e-5 0.00311,9.26e-4 0.0063,0.00167 0.00935,0.00279 0.00753,0.0028 0.00667,0.0039 0.014203,0.00627 0.010096,0.00318 0.020981,0.00368 0.031246,0.00601 0.045036,0.00951 0.09024,0.022257 0.1289663,0.048003 C 7.3955497,3.6946677 7.2641401,3.6182644 7.132493,3.5422721 c -0.00413,-0.00238 0.00791,0.00536 0.012028,0.00777 0.1396172,0.081303 0.2792339,0.1626085 0.4191815,0.243341 0.00783,0.00452 0.018841,0.00887 0.027779,0.010684 0.00444,8.996e-4 0.009,9.525e-4 0.013507,0.00143 0.018325,-5.11e-5 0.036628,-7.938e-4 0.054956,-7.938e-4 0.039127,4.02e-5 0.078242,0.00143 0.1173435,0.00266 0.074452,0.00243 0.1496367,0.00385 0.222685,0.019958 z" /><path
     style="fill:#000000;fill-opacity:1;fill-rule:evenodd;stroke:none;stroke-width:0.135;stroke-dasharray:none;stroke-opacity:1"
     id="path70"
     d="m 7.6870916,2.6327724 c -0.034704,-1.836e-4 -0.06774,-0.013155 -0.100471,-0.023257 -0.00542,-0.00138 -0.010745,-0.00327 -0.016274,-0.00414 -0.00153,-2.406e-4 -0.032946,-0.00184 -0.03364,-0.00188 -0.011547,-1.76e-4 -0.022894,-0.00247 -0.034373,-0.00334 -0.00493,-3.704e-4 -0.00988,-3.413e-4 -0.014825,-5.107e-4 -0.00447,0.00131 -0.0094,0.00158 -0.013417,0.00394 -0.00979,0.00576 -0.016714,0.016904 -0.020952,0.026935 -2.91e-4,6.615e-4 0.00228,3.996e-4 0.00191,0.00101 -0.00885,0.014279 -0.01937,0.019823 -0.033055,0.030517 -0.010176,0.0056 -0.020352,0.011195 -0.030527,0.016793 0,0 0.3658706,0.2424766 0.3658706,0.2424766 v 0 c 0.012224,-0.00469 0.024447,-0.00937 0.03667,-0.014057 0.00331,-0.00103 0.061529,-0.01882 0.067493,-0.021741 0.00777,-0.00381 0.013446,-0.011107 0.021122,-0.01511 0.00423,-0.0022 -0.01447,0.014105 -0.00689,0.012327 0.012838,-1.482e-4 0.025463,2.91e-4 0.038175,0.00243 0.020357,0.00342 0.014637,0.00343 0.034276,0.00861 0.00422,0.00111 0.00851,0.0019 0.012769,0.00286 0.018018,0.00383 0.03608,0.00734 0.053924,0.011964 0.021892,0.00568 0.025236,0.00711 0.046777,0.013467 0.00581,0.00172 0.011642,0.00335 0.017463,0.00502 z" /><path
     style="fill:#000000;fill-opacity:1;fill-rule:evenodd;stroke:none;stroke-width:0.135;stroke-dasharray:none;stroke-opacity:1"
     id="path71"
     d="m 7.1182417,3.6862908 c 0.00617,-0.00487 0.00964,-0.00802 0.017113,-0.011732 0.0045,-0.00225 0.00929,-0.00385 0.01397,-0.00568 0.015735,-0.00615 0.031432,-0.010951 0.047791,-0.0151 0.0039,-9.26e-4 0.020085,-0.00377 0.023087,-0.00819 C 7.3381298,3.4719207 6.9904046,3.4623171 6.8068954,3.3670306 c -0.00419,-0.00217 -0.00794,0.00516 -0.012163,0.00727 -0.00484,0.00241 -0.00997,0.00419 -0.014949,0.00629 -0.018711,0.00588 -0.012734,0.00442 -0.031273,0.00866 -0.00439,0.00101 -0.01,-2.911e-4 -0.013195,0.00288 -0.153557,0.1521159 0.31941,0.2250827 0.4130273,0.2653033 0.012597,0.00541 0.019614,-0.019164 0.029422,-0.028744 0.018293,-0.010938 0.035695,-0.023529 0.054882,-0.032811 0.046882,-0.022677 0.1038495,-0.040015 0.1540391,-0.052642 0.025112,-0.00632 0.050664,-0.010729 0.075996,-0.016092 0,0 -0.3148875,-0.2148107 -0.3148875,-0.2148107 v 0 c -0.020526,0.00865 -0.040665,0.018275 -0.061578,0.025937 -0.081289,0.029782 -0.1658816,0.049278 -0.2524162,0.054735 -0.2329334,-0.00468 -0.00931,-0.01134 0.3300415,0.2369214 0.011406,0.00834 -0.01864,0.021275 -0.027294,0.032449 -0.00135,0.00172 0.00326,-0.00303 0.00524,-0.00397 0.00934,-0.00446 0.016793,-0.00523 0.026975,-0.00728 0.00536,-6.75e-5 0.010771,-9.26e-4 0.016087,-2.027e-4 0.00484,6.615e-4 0.00934,0.00283 0.01401,0.00424 C 7.0598463,3.5759297 6.9208334,3.4966933 6.7818208,3.417457 c -0.011893,-0.00829 0.015407,-0.024588 0.023974,-0.036283 4.498e-4,-6.085e-4 0.00266,-3.65e-5 0.0022,5.556e-4 -0.00156,0.00198 -0.00408,0.00299 -0.00612,0.00448 -0.00368,0.00172 -0.00725,0.0037 -0.011038,0.00518 -0.018193,0.00712 -0.043748,0.011941 -0.063105,0.00804 -0.00316,-6.35e-4 -0.00604,-0.0023 -0.00905,-0.00344 z" /><path
     style="fill:#000000;fill-opacity:1;fill-rule:evenodd;stroke:none;stroke-width:0.135;stroke-dasharray:none;stroke-opacity:1"
     id="path72"
     d="m 7.1435925,3.697211 c 1.96e-5,-0.00257 -6.879e-4,-0.00525 5.9e-5,-0.0077 0.00546,-0.017912 0.024913,-0.033383 0.039055,-0.044366 0,0 -0.4054822,-0.2488481 -0.4054822,-0.2488481 v 0 c -0.00304,0.00383 -0.00589,0.00781 -0.00912,0.011475 -0.015354,0.017476 -0.033562,0.032058 -0.052089,0.045987 z" /><path
     style="fill:#000000;fill-opacity:1;fill-rule:evenodd;stroke:none;stroke-width:0.135;stroke-dasharray:none;stroke-opacity:1"
     id="path73"
     d="m 6.5074712,3.295777 c -0.00206,9.26e-4 -0.00403,0.00209 -0.00619,0.00274 -0.015473,0.0046 -0.031978,0.00478 -0.047947,0.00507 -0.00697,1.281e-4 -0.03416,2.05e-4 -0.041112,2.315e-4 -0.01614,-4.233e-4 -0.01995,-3.704e-4 -0.035495,-0.00138 -0.00893,-5.821e-4 -0.015086,4.498e-4 -0.022151,-0.00555 -0.00233,-0.00196 -0.00798,-0.00888 -0.00532,-0.00741 0.1376211,0.076215 0.2739726,0.1547014 0.4109587,0.232052 -0.01094,-0.00167 -0.021241,-0.00694 -0.027634,-0.016301 -0.00319,-0.00468 -0.0048,-0.00993 -0.00672,-0.01515 -0.00116,-0.00511 -0.00246,-0.010216 -0.0032,-0.015412 -3.704e-4,-0.00259 -3.439e-4,-0.00526 -9.789e-4,-0.0078 -0.00172,-0.00683 -0.0042,-0.010356 -0.00758,-0.016454 -0.01007,-0.016079 -0.021138,-0.031685 -0.028937,-0.049088 -0.00175,-0.00388 -0.00306,-0.00793 -0.00459,-0.011898 -0.00896,-0.028037 -0.010067,-0.057564 -0.012311,-0.086667 -0.00138,-0.017754 -0.0029,-0.035494 -0.00402,-0.053266 0,0 -0.4338471,-0.2096865 -0.4338471,-0.2096865 v 0 c 0.00592,0.016544 0.01153,0.033226 0.012623,0.050935 0.00301,0.030682 0.0045,0.061461 0.00726,0.092168 0.00111,0.00876 0.00228,0.020077 0.00441,0.028723 0.00153,0.00629 0.00548,0.016433 0.00775,0.022617 0.00122,0.00329 0.00222,0.00664 0.00362,0.00986 0.00108,0.00251 0.00251,0.00487 0.00376,0.0073 0.00235,0.00434 0.00291,0.00631 0.00625,0.00959 9.525e-4,9.261e-4 0.00243,0.00132 0.00317,0.00243 0.00106,0.00161 0.00135,0.00359 0.00196,0.00541 0.00516,0.015483 -0.00106,-0.00177 0.00528,0.015354 0.00151,0.00468 0.00509,0.01543 0.00625,0.020079 9.525e-4,0.00378 0.00146,0.00766 0.00235,0.011462 0.00257,0.010919 0.0066,0.021061 0.012107,0.030852 0.1419421,0.080345 0.2827544,0.1627193 0.4258265,0.2410347 0.00322,0.00177 0.00724,-0.00122 0.010821,-0.00201 0.00331,-7.408e-4 0.00654,-0.00185 0.00984,-0.00265 0.012213,-0.00289 0.024757,-0.00406 0.037249,-0.00494 0.038534,-0.00111 0.077493,-0.00103 0.115311,0.00743 z" /><path
     style="fill:#000000;fill-opacity:1;fill-rule:evenodd;stroke:none;stroke-width:0.135;stroke-dasharray:none;stroke-opacity:1"
     id="path74"
     d="m 6.6223673,3.4791734 c -0.00116,-0.00964 -0.00339,-0.019219 -0.0035,-0.028933 -1.299e-4,-0.012435 0.00127,-0.024863 0.0028,-0.037202 0.00319,-0.025551 0.00923,-0.05343 0.016349,-0.078188 0.00319,-0.011086 0.00727,-0.021897 0.010906,-0.032846 0,0 -0.3888568,-0.2098191 -0.3888568,-0.2098191 v 0 c -0.00185,0.011869 -0.00321,0.02382 -0.00553,0.035605 -0.00525,0.026644 -0.010663,0.047921 -0.022278,0.072578 -0.00464,0.00984 -0.00979,0.019577 -0.016444,0.028183 -0.00514,0.00665 -0.012369,0.011396 -0.018553,0.017095 z" /><path
     style="fill:#000000;fill-opacity:1;fill-rule:evenodd;stroke:none;stroke-width:0.135;stroke-dasharray:none;stroke-opacity:1"
     id="path75"
     d="m 6.6677566,3.3015835 c -0.0018,-0.014978 -0.00331,-0.022405 -0.00177,-0.038784 0.00246,-0.026091 0.011393,-0.054288 0.021976,-0.078159 0.00301,-0.00678 0.00659,-0.01329 0.00989,-0.019936 0.00649,-0.011586 0.00912,-0.017005 0.01629,-0.027461 0.00212,-0.00307 0.00559,-0.00795 0.00894,-0.010491 0.0036,-0.00273 0.00743,-0.0042 0.011523,-0.0061 0.00262,-0.00122 0.00521,-0.00249 0.00786,-0.00362 0.01044,-0.00447 0.00716,-0.00235 0.017555,-0.00758 0.010454,-0.00525 0.020257,-0.011851 0.030408,-0.017658 0.017357,-0.00778 0.00867,-0.00436 0.026019,-0.010372 0,0 -0.3992499,-0.2646873 -0.3992499,-0.2646873 v 0 c -0.014478,0.0086 -0.0067,0.00443 -0.023445,0.012287 -0.012838,0.00478 -0.026326,0.00875 -0.038633,0.014841 -0.00983,0.00486 -0.018648,0.011687 -0.027859,0.017555 -0.011041,0.00955 -0.023074,0.01955 -0.028763,0.033543 -0.00161,0.00399 -0.00188,0.00842 -0.00243,0.012687 -6.35e-4,0.00493 -7.143e-4,0.00992 -0.00106,0.014885 -8.202e-4,0.00631 -0.00167,0.012626 -0.00249,0.018942 -0.00146,0.00762 -0.00259,0.015314 -0.00439,0.022865 -0.00617,0.026112 -0.015272,0.052305 -0.0291,0.075441 -0.00723,0.012097 -0.013266,0.018275 -0.022008,0.028198 z" /><path
     style="fill:#000000;fill-opacity:1;fill-rule:evenodd;stroke:none;stroke-width:0.135;stroke-dasharray:none;stroke-opacity:1"
     id="path76"
     d="m 6.7421262,3.1022914 c -1.617e-4,-0.00302 -0.00103,-0.00609 -4.763e-4,-0.00906 8.202e-4,-0.00449 0.00267,-0.00873 0.00444,-0.012936 0.010541,-0.025037 0.02728,-0.043763 0.045589,-0.06332 0.014584,-0.013541 0.030197,-0.026411 0.048373,-0.034843 0.0043,-0.00198 0.00879,-0.00353 0.013192,-0.0053 0.00201,-7.937e-4 0.00408,-0.00151 0.00606,-0.00241 0.010623,-0.00485 0.02078,-0.010623 0.031451,-0.015404 0.017124,-0.00767 0.014507,-0.00634 0.03223,-0.012562 0.02028,-0.00485 0.038536,-0.015004 0.05748,-0.02327 0.00918,-0.00401 0.018045,-0.0071 0.027433,-0.010536 0.00401,-0.00185 0.00805,-0.00364 0.012033,-0.00554 0.016351,-0.00779 0.00756,-0.00433 0.025532,-0.011626 0.00922,-0.00447 0.019201,-0.00687 0.028691,-0.010597 0.00445,-0.00175 0.00875,-0.00385 0.013129,-0.00578 0.00798,-0.00398 0.015698,-0.00847 0.023667,-0.012464 0.00359,-0.0018 0.00736,-0.00324 0.010882,-0.00516 0.011462,-0.00627 0.022074,-0.014097 0.032438,-0.021984 0.00394,-0.00328 0.00799,-0.00643 0.011819,-0.00983 0.053006,-0.046977 -0.031509,0.026429 0.026687,-0.024773 0.014547,-0.012798 0.015245,-0.012854 0.03051,-0.024252 0,0 -0.3975505,-0.2493441 -0.3975505,-0.2493441 v 0 c -0.011914,0.010516 -0.015772,0.01451 -0.029005,0.023732 -0.014065,0.0098 -0.029323,0.017593 -0.044129,0.02616 -0.010956,0.00568 -0.02214,0.01108 -0.032933,0.017071 -0.010332,0.00574 -0.020257,0.012278 -0.031359,0.016543 -0.012054,0.00589 -0.023948,0.011807 -0.036466,0.016685 -0.010321,0.00402 -0.020974,0.00718 -0.031236,0.011353 -0.00382,0.00155 -0.00745,0.00353 -0.011171,0.0053 -0.010409,0.00578 -0.01234,0.00716 -0.023821,0.012118 -0.017928,0.00773 -0.036841,0.013213 -0.054069,0.022564 -0.016587,0.00653 -0.014957,0.00634 -0.032565,0.011382 -0.01869,0.00535 -0.038661,0.00838 -0.055116,0.01941 -0.00249,0.00206 -0.00516,0.00395 -0.00747,0.00622 -0.00575,0.00564 -0.00814,0.00984 -0.01274,0.016499 -0.00943,0.013666 -0.018894,0.027345 -0.030204,0.039572 -0.014266,0.01655 -0.027784,0.033827 -0.042762,0.049748 -0.00475,0.00505 -0.00978,0.00981 -0.014658,0.014729 -0.016169,0.016306 -0.00732,0.00803 -0.023257,0.02214 z" /><path
     style="fill:#000000;fill-opacity:1;fill-rule:evenodd;stroke:none;stroke-width:0.135;stroke-dasharray:none;stroke-opacity:1"
     id="path77"
     d="m 7.0322725,2.7975266 c -0.00103,-0.00793 -0.00188,-0.011433 -9.525e-4,-0.020119 0.00206,-0.019259 0.00833,-0.038534 0.017021,-0.055765 0.00317,-0.00629 0.00711,-0.012171 0.010673,-0.018256 0.011962,-0.017267 0.025358,-0.03452 0.042961,-0.046479 0.00351,-0.00238 0.00926,-0.00484 0.013211,-0.00664 0.00243,-5.291e-4 0.00606,-0.00156 0.0087,-0.00124 8.202e-4,1.016e-4 0.00148,0.00101 0.00233,9.79e-4 0.00308,-7.28e-5 0.012319,-0.00437 0.015166,-0.00546 0.00217,-7.435e-4 0.00437,-0.00133 0.00647,-0.00223 0.00684,-0.00295 0.013221,-0.0069 0.020045,-0.0099 0.013094,-0.00576 0.034626,-0.01395 0.047345,-0.017214 0.012428,-0.00319 0.025173,-0.00497 0.037759,-0.00746 0.042245,-0.00679 0.084998,-0.00754 0.1276556,-0.0063 0.025133,7.302e-4 0.042467,0.00157 0.067068,0.00498 0.00949,0.00132 0.018878,0.00328 0.028316,0.00492 0.022262,0.00536 0.044585,0.011276 0.065761,0.020142 0.00506,0.00212 0.00991,0.00474 0.014859,0.00711 0,0 -0.3772009,-0.2921051 -0.3772009,-0.2921051 v 0 c -0.023058,-0.00249 -0.046087,-0.00556 -0.06932,-0.00588 -0.021254,1.742e-4 -0.033294,-1.275e-4 -0.054883,0.00181 -0.022106,0.00198 -0.042681,0.00588 -0.064728,0.00872 -0.042507,0.00546 -0.043436,0.0049 -0.087904,0.00819 -0.015674,8.044e-4 -0.031339,0.00184 -0.047023,0.00242 -0.040745,0.00149 -0.038949,-3.64e-5 -0.075752,0.0023 -0.0082,5.212e-4 -0.025302,0.00212 -0.034591,0.00402 -0.00286,5.847e-4 -0.00561,0.00162 -0.00841,0.00243 -0.00654,0.00198 -0.015065,0.00374 -0.020958,0.00717 -0.00641,0.00372 -0.010155,0.010059 -0.014787,0.015554 -0.00515,0.00714 -0.00677,0.00902 -0.011396,0.01712 -0.011404,0.019939 -0.019018,0.041883 -0.031467,0.061284 -0.018291,0.031048 -0.036122,0.062831 -0.060159,0.089913 z" /><path
     style="fill:#000000;fill-opacity:1;fill-rule:evenodd;stroke:none;stroke-width:0.135;stroke-dasharray:none;stroke-opacity:1"
     id="path78"
     d="m 7.3753606,2.7108314 c 0.00206,-0.00486 0.00354,-0.010001 0.00617,-0.014576 0.00788,-0.013697 0.018262,-0.024749 0.02895,-0.036254 0.00598,-0.00644 0.011967,-0.012904 0.01832,-0.018985 0.014666,-0.014042 0.022249,-0.019353 0.037955,-0.031608 0.00561,-0.00438 0.011142,-0.00885 0.016822,-0.013126 0.018092,-0.013629 0.03729,-0.024441 0.056443,-0.036324 0.00238,-0.00139 0.00486,-0.00268 0.00718,-0.00418 0.00334,-0.00216 0.00649,-0.00463 0.00982,-0.00682 0.00904,-0.00595 0.019415,-0.012237 0.029031,-0.017014 0.014581,-0.00724 0.026571,-0.01164 0.041741,-0.017678 0.023164,-0.00862 0.046766,-0.015967 0.070168,-0.023894 0.014605,-0.00495 0.00571,-0.00137 0.018455,-0.00694 0.00259,-0.00284 0.00654,-0.00183 0.00961,-0.00323 0.00281,-8.864e-4 0.00447,-0.00371 0.00707,-0.0049 1.926e-4,-8.83e-5 0.00167,6.773e-4 0.00185,7.673e-4 -0.00177,0.00119 -4.498e-4,0.00329 -0.00119,0.00475 -0.078129,0.1540758 -0.5451348,-0.116943 -0.4291161,-0.2419623 0,0 0.4512601,0.2092905 0.4512601,0.2092905 v 0 c 0.030577,-0.1677343 0.00452,-0.015751 -0.4267412,-0.2568598 -0.00325,-0.00182 -0.00458,0.00588 -0.00695,0.00876 -0.0018,0.00218 -0.0041,0.00393 -0.00562,0.00636 -0.00327,0.00411 -0.00681,0.00781 -0.010509,0.011558 -0.017558,0.01728 -0.03926,0.02924 -0.061587,0.039306 -0.02413,0.00949 -0.01977,0.00816 -0.044988,0.016474 -0.023368,0.0077 -0.047869,0.013868 -0.068549,0.027754 -0.00277,0.00243 -0.00576,0.00462 -0.0083,0.00728 -0.00201,0.00211 -0.012041,0.015716 -0.013356,0.017352 -0.011258,0.013998 -0.023561,0.02714 -0.035488,0.040557 -0.011613,0.012962 -0.020143,0.023028 -0.033005,0.035023 -0.0066,0.00616 -0.013581,0.01191 -0.020524,0.017686 -0.018074,0.015038 -0.036782,0.029184 -0.058946,0.037718 z" /><path
     style="fill:#000000;fill-opacity:1;fill-rule:evenodd;stroke:none;stroke-width:0.135;stroke-dasharray:none;stroke-opacity:1"
     id="path79"
     d="m 7.7964614,2.8905686 c -0.00992,-0.028147 -0.010626,-0.052962 -0.00294,-0.081885 0.00156,-0.0059 0.00377,-0.011607 0.00566,-0.017412 0.00552,-0.016423 0.016105,-0.030016 0.024905,-0.044637 0.00459,-0.00763 0.00526,-0.00918 0.0095,-0.017214 0.0081,-0.018142 0.013412,-0.037352 0.020836,-0.05577 3.439e-4,-0.00259 0.00217,-0.0046 0.00301,-0.00699 5.76e-5,-1.638e-4 -1.667e-4,3.175e-4 -2.225e-4,4.762e-4 -7.938e-4,0.00233 -7.673e-4,0.00148 -5.821e-4,0.00309 0.00313,-9.525e-4 0.00404,-0.00736 0.00341,-5.821e-4 0,0 -0.4189976,-0.2668529 -0.4189976,-0.2668529 v 0 c -0.00287,0.00436 -0.00404,0.0059 -0.00763,0.00925 -0.00482,0.0064 -0.00992,0.01368 -0.011414,0.021758 -6.35e-4,0.00346 2.91e-4,0.00709 -6.615e-4,0.010521 0.0014,0.015926 -4.498e-4,0.031534 -0.00811,0.045835 -0.00456,0.00976 -0.00958,0.019393 -0.012785,0.029715 -0.0048,0.015454 -0.00636,0.03168 -0.011385,0.047084 -0.00943,0.033614 -0.017566,0.06789 -0.031297,0.1000732 z" /><path
     style="fill:#000000;fill-opacity:1;fill-rule:evenodd;stroke:none;stroke-width:0.135;stroke-dasharray:none;stroke-opacity:1"
     id="path80"
     d="m 7.5583279,2.557774 c 0.00334,-0.00593 0.00412,-0.00801 0.0096,-0.013477 0.015385,-0.015338 0.035598,-0.025262 0.05445,-0.035521 0.017142,-0.00979 0.034295,-0.01988 0.04913,-0.033028 0.00717,-0.00636 0.010231,-0.01 0.016534,-0.016851 0.00188,0.00156 0.00774,-0.012537 0.011054,-0.010269 5.028e-4,3.493e-4 4.763e-4,0.00114 7.673e-4,0.00169 0.00132,0.00268 9.261e-4,6.006e-4 7.673e-4,0.00449 3.44e-4,7.673e-4 -3.704e-4,0.00822 0.00146,0.00756 0.00432,-0.0032 0.00217,-0.00221 0.00624,-0.00348 0.00481,-0.00223 0.00861,-0.00623 0.0132,-0.00878 0.00106,-5.901e-4 0.00233,-6.933e-4 0.00343,-0.0012 0.00549,-0.00301 0.00276,-0.0017 0.00815,-0.00399 0.00701,-0.00108 0.00626,-0.00327 0.00338,0.00592 0,0 -0.4035602,-0.2898086 -0.4035602,-0.2898086 v 0 c -0.00405,0.00476 -0.00614,0.00778 -0.011332,0.010548 -0.00605,0.00288 8.996e-4,-2.272e-4 -0.006,0.00215 -0.00143,4.895e-4 -0.00271,0.00143 -0.00419,0.00171 -0.00235,4.525e-4 -0.0054,-0.0014 -0.00736,-0.00238 -0.00106,-2.54e-5 -0.00212,-5.09e-5 -0.00318,-7.63e-5 -3.969e-4,-6.932e-4 -3.969e-4,-0.00188 -0.00116,-0.00208 -0.00303,-7.805e-4 -0.010824,0.00761 -0.012676,0.00949 -0.00786,0.00894 -0.01529,0.018576 -0.017444,0.030578 -8.203e-4,0.00175 -0.00146,0.0036 -0.00243,0.00526 -0.00954,0.016049 -0.02804,0.024255 -0.042166,0.035408 -0.00996,0.00659 -0.017026,0.011562 -0.027617,0.017312 -0.017322,0.0094 -0.035903,0.016783 -0.055279,0.020584 z" /><path
     style="fill:#000000;fill-opacity:1;fill-rule:evenodd;stroke:none;stroke-width:0.135;stroke-dasharray:none;stroke-opacity:1"
     id="path81"
     d="m 7.7133687,2.7706825 c 9.261e-4,-0.00217 0.00153,-0.00449 0.00277,-0.00651 0.00198,-0.00326 0.00437,-0.00625 0.00679,-0.0092 0.014817,-0.018066 0.03341,-0.032061 0.052135,-0.045782 0.012189,-0.00756 0.012695,-0.00824 0.024704,-0.014393 0.00287,-0.00148 0.011158,-0.00582 0.015277,-0.00624 0.00161,-1.656e-4 0.00617,0.00177 0.00758,0.0023 0.00295,-8.202e-4 0.00594,2.646e-4 0.0089,6.9e-6 0.010049,-9.26e-4 0.018859,-0.011023 0.025395,-0.017526 0.011904,-0.013859 0.024985,-0.026483 0.039635,-0.037377 0.00306,-0.00112 0.00161,-7.726e-4 0.00432,-0.0012 0,0 -0.4221938,-0.2601334 -0.4221938,-0.2601334 v 0 c -0.00249,0.00449 -0.00116,0.00209 -0.00401,0.0072 -0.00424,0.00955 -0.010356,0.019183 -0.019603,0.024654 -0.00209,0.00123 -0.00446,0.00186 -0.00669,0.00279 -0.0054,1.885e-4 -0.011374,-4.948e-4 -0.016671,4.64e-5 -0.0055,5.636e-4 -0.010036,0.00367 -0.014959,0.00587 -0.00618,0.00433 -0.00875,0.00572 -0.014126,0.01131 -0.00389,0.00405 -0.00641,0.00858 -0.00979,0.013028 -0.00718,0.00943 -0.00828,0.010096 -0.016947,0.019403 -0.00412,0.00376 -0.00805,0.00773 -0.012356,0.011274 -0.02164,0.017804 -0.046338,0.031414 -0.070512,0.045363 z" /><path
     style="fill:#000000;fill-opacity:1;fill-rule:evenodd;stroke:none;stroke-width:0.135;stroke-dasharray:none;stroke-opacity:1"
     id="path82"
     d="m 7.9883721,3.0548397 c 0.00296,-0.00153 0.00584,-0.00324 0.00889,-0.0046 0.014216,-0.00633 0.01937,-0.00753 0.035364,-0.011888 0.018113,-0.00494 0.034035,-0.00891 0.052513,-0.01256 0.009,-0.00177 0.018076,-0.00316 0.027116,-0.00475 0.025977,-0.0061 0.05337,-0.00436 0.079105,-0.011631 0.00918,-0.00259 0.013398,-0.00501 0.021693,-0.009 0.00765,-0.00314 0.012695,-0.00959 0.018891,-0.014626 0.00441,-0.00358 0.00992,-0.00645 0.014705,-0.00947 0.012261,-0.00663 0.026202,-0.00852 0.039924,-0.00723 0.00465,0.00153 0.01488,0.00602 0.01773,0.010015 0.00686,0.00962 -0.00291,2.646e-4 0.00551,0.00761 0.00111,8.732e-4 0.00225,0.00177 0.00337,0.00265 0,0 -0.3857686,-0.3079935 -0.3857686,-0.3079935 v 0 c -0.00119,-2.429e-4 -0.00235,-4.763e-4 -0.00355,-7.408e-4 -0.00159,-2.302e-4 -0.00317,-7.673e-4 -0.00478,-6.88e-4 -0.00228,1.064e-4 -0.00447,8.203e-4 -0.0067,0.00122 -0.00894,0.00164 -0.017695,0.00389 -0.026252,0.007 -0.00257,8.996e-4 -0.0052,0.00164 -0.00773,0.00266 -0.00543,0.0022 -0.00787,0.00395 -0.012978,0.00671 -0.00889,0.0048 -0.017962,0.00927 -0.026821,0.014134 -0.00623,0.00344 -0.010086,0.00534 -0.01588,0.0094 -0.00567,0.00397 -0.010885,0.00861 -0.016814,0.012226 -0.00635,0.00379 -0.012901,0.00668 -0.019698,0.00962 -0.015811,0.00683 -0.031825,0.013208 -0.048621,0.017283 -0.00816,0.00193 -0.016248,0.00419 -0.024477,0.00579 -0.040008,0.00782 -0.081697,0.010181 -0.1219653,0.00311 z" /><path
     style="fill:#000000;fill-opacity:1;fill-rule:evenodd;stroke:none;stroke-width:0.135;stroke-dasharray:none;stroke-opacity:1"
     id="path83"
     d="m 8.3654605,3.2246072 c 0.0023,-0.00363 0.00441,-0.00741 0.00693,-0.010898 0.00487,-0.00674 0.014909,-0.018288 0.020299,-0.024527 0.00814,-0.00942 0.016497,-0.018254 0.025474,-0.02686 0.011411,-0.012237 0.016169,-0.028095 0.021466,-0.043521 0.00249,-0.00781 0.00665,-0.015007 0.00866,-0.02299 9.525e-4,-0.00378 0.00188,-0.010517 0.00246,-0.01443 6.879e-4,-0.00527 0.00172,-0.01047 0.00279,-0.015666 7.672e-4,-0.00371 0.0013,-0.00259 4.497e-4,-0.00406 0,0 -0.4385714,-0.2301057 -0.4385714,-0.2301057 v 0 c -3.175e-4,0.00175 -8.467e-4,0.00348 -9.261e-4,0.00526 -5.34e-5,0.00119 3.44e-4,0.00235 5.292e-4,0.00352 7.144e-4,0.00461 0.00124,0.00923 0.00119,0.013909 -3.704e-4,0.00988 -0.0014,0.019667 -0.00522,0.028908 -0.00337,0.010946 -0.00588,0.02218 -0.0108,0.03257 -0.00679,0.016468 -0.016849,0.033557 -0.034238,0.040675 -0.00364,0.00148 -0.00765,0.00185 -0.01147,0.00278 z" /><g
     id="g84"
     transform="matrix(0.06566074,0,0,0.06566074,2.1434586,-0.13132149)"><path
       fill="currentColor"
       d="M 36.989,42.439 H 27.01 L 23,2 h 18 z"
       id="path1-3" /><ellipse
       cx="31.999001"
       cy="54.354"
       fill="currentColor"
       rx="7.6630001"
       ry="7.6459999"
       id="ellipse1" /></g></svg>
