<?xml version="1.0" encoding="UTF-8" standalone="no"?>
<!-- Created with Inkscape (http://www.inkscape.org/) -->

<svg
   width="31.999998"
   height="31.999998"
   viewBox="0 0 8.466666 8.4666661"
   version="1.1"
   id="svg1"
   xml:space="preserve"
   xmlns="http://www.w3.org/2000/svg"
   xmlns:svg="http://www.w3.org/2000/svg"><defs
     id="defs1" /><g
     id="layer1"><g
       id="g2"
       transform="matrix(0.26458333,0,0,0.26458333,1.0583334,2.403825)"><path
         fill="currentColor"
         d="M 14.639851,2.2011141 H 9.3601484 c -1.4519181,0 -2.6398513,1.1879332 -2.6398513,2.6398515 v 6.5996284 c 0,0.725959 0.5939666,1.319925 1.3199257,1.319925 h 1.3199256 v 7.919555 C 9.3601484,21.406034 9.9541147,22 10.680074,22 h 2.639851 c 0.725959,0 1.319926,-0.593966 1.319926,-1.319926 v -7.919555 h 1.319927 c 0.725958,0 1.319925,-0.593966 1.319925,-1.319925 V 4.8409656 c 0,-1.4519183 -1.187934,-2.6398515 -2.639852,-2.6398515"
         id="path1"
         style="stroke-width:1.31993" /><path
         fill="currentColor"
         d="m 12.000006,-8.5157852 c -0.332754,0 -0.67274,0.072821 -1.000668,0.2044752 l 1.000668,1.2528804 1.000668,-1.2528804 c -0.327933,-0.1316575 -0.667919,-0.2044752 -1.000668,-0.2044752 m -1.432279,0.4089503 c -0.446083,0.2476305 -0.8656433,0.5953357 -1.2273309,1.006452 -0.2604108,0.2944141 -0.4870677,0.619688 -0.5979857,0.7812419 L 7.1799208,-4.2189423 8.6049691,-2.217606 8.1395991,-0.58278286 9.8660482,0.96524 9.6996734,0.30696731 10.570137,-2.3020009 9.5887554,-1.6485537 7.7566929,-4.2117065 8.7761643,-5.5692416 11.124722,-4.3949632 H 12.8777 l 2.348552,-1.1742784 1.019962,1.3575351 -1.832553,2.5631528 -0.983786,-0.6558575 0.0241,0.07716 0.848759,2.53421942 -0.166379,0.65827269 1.724044,-1.54802286 -0.467778,-1.63482355 1.427458,-2.0013363 -1.562489,-2.1001987 C 15.146671,-6.4806944 14.920016,-6.8059683 14.6596,-7.1003824 14.297911,-7.5114987 13.878357,-7.8592039 13.432274,-8.1068344 L 11.999995,-6.31673 Z m 0.364098,6.1833987 -0.120565,0.3616877 h 2.377492 l -0.120565,-0.3616877 z m -0.277298,0.8246473 -0.393031,1.18391997 h 3.477021 L 13.34307,-1.0987889 Z M 10.237382,0.54809566 10.533967,1.734426 h 2.932077 l 0.29417,-1.18633034 z m 0.810181,1.64929004 0.952443,0.7161396 0.952443,-0.7161396 z"
         id="path1-9"
         style="stroke-width:0.0241125" /><path
         fill="currentColor"
         d="m -1.0673895,13.723836 a 10.312936,10.312936 0 0 1 0.060259,-0.09556 l 0.20117621,-0.201868 0.92720418,0.927325 0.533226,-0.705646 -0.97666587,-0.97645 C -0.05444588,12.334517 0.23325801,12.00903 0.53515916,11.707125 0.89235194,11.349903 1.2936415,11.078702 1.702766,10.897213 1.5905261,10.666254 1.62989,10.379904 1.8217104,10.188063 c 0.2419437,-0.2419725 0.6340993,-0.2417205 0.8760621,2.25e-4 0.1207586,0.1208 0.1812342,0.278993 0.1814702,0.437255 0.5497579,-0.0081 1.042619,0.16525 1.4011991,0.523786 0.4286903,0.428669 0.5925927,1.049361 0.4982781,1.729713 a 2.9586289,2.9586289 0 0 1 -0.063025,0.320494 c 2.2981027,-0.425592 5.4592031,1.167719 3.2999169,3.440243 0.034315,-0.204105 -0.027026,-0.421077 -0.1845117,-0.57857 -0.2584667,-0.258422 -0.6772548,-0.25831 -0.9361274,-5.43e-4 A 0.65935159,0.65935159 0 0 0 6.7116401,15.708497 C 6.4916078,15.488489 6.15489,15.455677 5.9000503,15.609794 5.8700773,15.505666 5.8136777,15.407731 5.7316161,15.325695 5.5144764,15.108586 5.1846224,15.073848 4.9310622,15.22114 L 4.9015692,15.20758 C 4.890676,15.054093 4.8267122,14.903575 4.7093997,14.786228 4.4988388,14.575695 4.1817093,14.536629 3.93148,14.668854 c -0.066027,0.07681 -0.1354173,0.152245 -0.2087901,0.225629 -0.00602,0.0062 -0.012866,0.01206 -0.018883,0.01807 -0.016095,0.01613 -0.032681,0.03197 -0.049025,0.04794 0.7740442,0.666658 0.8747533,1.384932 0.3410733,1.648079 C 3.8769136,16.011102 3.5632287,15.649166 3.1703414,15.405983 A 11.475254,11.475254 0 0 1 2.7550721,15.748837 L 1.6212433,14.615326 0.93757825,15.170768 2.0027381,16.235667 1.8365419,16.402039 c -0.046108,0.02954 -0.09228,0.05917 -0.1384266,0.08785 l -1.06814356,-1.068928 -0.68401366,0.556046 0.90072622,0.900541 -0.16683089,0.16747 a 7.9671653,7.9671653 0 0 1 -0.15425393,0.07036 l -0.88825929,-0.887905 -0.65786479,0.534495 0.66432859,0.664174 -0.007769,0.0077 c -0.15815032,0.04189 -0.30927135,0.07286 -0.45111838,0.09186 l -0.51366501,-0.513167 -0.2155593,0.175205 -0.2455296,0.245638 c 0.1867272,0.285383 0.1542739,0.668477 -0.097222,0.919964 -0.288678,0.288675 -0.7507609,0.288681 -1.0394147,3.8e-5 -0.2525364,-0.252584 -0.284596,-0.637767 -0.095157,-0.92354 0.026976,-0.04083 0.059048,-0.07982 0.095122,-0.115895 0.2285323,-0.22853 0.5658764,-0.276096 0.8397104,-0.142818 l 0.3210523,-0.32099 0.1185478,-0.156473 -0.45945,-0.458967 c 0.017151,-0.132858 0.044542,-0.273562 0.082055,-0.420864 l 0.02772,-0.02821 0.5903138,0.590206 0.51271508,-0.679342 -0.80361488,-0.803312 c 0.016252,-0.03696 0.033243,-0.07402 0.050459,-0.111181 l 0.1981062,-0.199035 0.79578234,0.795707 0.53329876,-0.707044 -0.9481661,-0.947789 z"
         id="path1-4"
         style="stroke-width:0.0211331" /><path
         fill="currentColor"
         d="m 23.651294,15.177498 h -2.040339 v -0.680112 h -0.680113 v -0.680113 h -0.680113 v -3.400564 h 0.680113 V 8.3763697 h 0.680113 v -0.680113 h 2.720452 v 0.680113 h 0.680112 v 2.0403393 h -0.680112 v 0.680112 h -0.680113 v 0.680113 h -1.360226 v -0.680113 h 0.680113 v -0.680112 h 0.680113 V 9.0564825 h -1.360226 v 1.3602265 h -0.680113 v 2.720451 h 0.680113 v 0.680113 h 0.680113 V 13.13716 h 1.360226 v -0.680113 h 0.680112 v -1.360226 h 0.680113 V 7.0161438 H 25.011519 V 6.336031 H 24.331407 V 5.655918 h -2.040339 v 0.680113 h -0.680113 v 0.6801128 h -0.680113 v 0.6801129 h -0.680113 v 0.680113 H 19.570616 V 9.0564825 H 18.890503 V 10.416709 H 18.21039 v 0.680112 h -0.680113 v 0.680113 h -0.680112 v 0.680113 h -0.680113 v -0.680113 h -0.680113 v -1.360225 h 0.680113 V 9.7365951 h 0.680113 V 9.0564825 h 0.680112 V 8.3763697 h 0.680113 v -0.680113 h 0.680113 V 7.0161438 h 0.680113 V 6.336031 h 0.680113 V 5.655918 h 0.680113 V 4.9758052 h 1.360226 V 4.2956923 h 2.720451 v 0.6801129 h 0.680113 V 5.655918 h 0.680113 v 0.680113 h 0.680113 v 5.440903 h -0.680113 v 1.360226 h -0.680113 v 0.680113 h -0.680113 v 0.680113 h -1.360225 z"
         id="path1-0"
         style="stroke-width:0.680113" /></g></g></svg>
